  0
SECTION
  2
BLOCKS
  0
ENDSEC
  0
SECTION
  2
ENTITIES
  0
LINE
  8
0
 10
-5
 20
-30.86
 11
-4.99013
 21
-31.174
  0
LINE
  8
0
 10
-4.99013
 20
-31.174
 11
-4.96057
 21
-31.4867
  0
LINE
  8
0
 10
-4.96057
 20
-31.4867
 11
-4.91144
 21
-31.7969
  0
LINE
  8
0
 10
-4.91144
 20
-31.7969
 11
-4.84292
 21
-32.1034
  0
LINE
  8
0
 10
-4.84292
 20
-32.1034
 11
-4.75528
 21
-32.4051
  0
LINE
  8
0
 10
-4.75528
 20
-32.4051
 11
-4.64888
 21
-32.7006
  0
LINE
  8
0
 10
-4.64888
 20
-32.7006
 11
-4.52413
 21
-32.9889
  0
LINE
  8
0
 10
-4.52413
 20
-32.9889
 11
-4.38153
 21
-33.2688
  0
LINE
  8
0
 10
-4.38153
 20
-33.2688
 11
-4.22164
 21
-33.5391
  0
LINE
  8
0
 10
-4.22164
 20
-33.5391
 11
-4.04508
 21
-33.7989
  0
LINE
  8
0
 10
-4.04508
 20
-33.7989
 11
-3.85257
 21
-34.0471
  0
LINE
  8
0
 10
-3.85257
 20
-34.0471
 11
-3.64484
 21
-34.2827
  0
LINE
  8
0
 10
-3.64484
 20
-34.2827
 11
-3.42274
 21
-34.5048
  0
LINE
  8
0
 10
-3.42274
 20
-34.5048
 11
-3.18712
 21
-34.7126
  0
LINE
  8
0
 10
-3.18712
 20
-34.7126
 11
-2.93893
 21
-34.9051
  0
LINE
  8
0
 10
-2.93893
 20
-34.9051
 11
-2.67913
 21
-35.0816
  0
LINE
  8
0
 10
-2.67913
 20
-35.0816
 11
-2.40877
 21
-35.2415
  0
LINE
  8
0
 10
-2.40877
 20
-35.2415
 11
-2.1289
 21
-35.3841
  0
LINE
  8
0
 10
-2.1289
 20
-35.3841
 11
-1.84062
 21
-35.5089
  0
LINE
  8
0
 10
-1.84062
 20
-35.5089
 11
-1.54508
 21
-35.6153
  0
LINE
  8
0
 10
-1.54508
 20
-35.6153
 11
-1.24345
 21
-35.7029
  0
LINE
  8
0
 10
-1.24345
 20
-35.7029
 11
-0.936906
 21
-35.7714
  0
LINE
  8
0
 10
-0.936906
 20
-35.7714
 11
-0.626666
 21
-35.8206
  0
LINE
  8
0
 10
-0.626666
 20
-35.8206
 11
-0.313952
 21
-35.8501
  0
LINE
  8
0
 10
-0.313952
 20
-35.8501
 11
0
 21
-35.86
  0
LINE
  8
0
 10
0
 20
-35.86
 11
76.6
 21
-35.86
  0
LINE
  8
0
 10
76.6
 20
-35.86
 11
76.914
 21
-35.8501
  0
LINE
  8
0
 10
76.914
 20
-35.8501
 11
77.2267
 21
-35.8206
  0
LINE
  8
0
 10
77.2267
 20
-35.8206
 11
77.5369
 21
-35.7714
  0
LINE
  8
0
 10
77.5369
 20
-35.7714
 11
77.8434
 21
-35.7029
  0
LINE
  8
0
 10
77.8434
 20
-35.7029
 11
78.1451
 21
-35.6153
  0
LINE
  8
0
 10
78.1451
 20
-35.6153
 11
78.4406
 21
-35.5089
  0
LINE
  8
0
 10
78.4406
 20
-35.5089
 11
78.7289
 21
-35.3841
  0
LINE
  8
0
 10
78.7289
 20
-35.3841
 11
79.0088
 21
-35.2415
  0
LINE
  8
0
 10
79.0088
 20
-35.2415
 11
79.2791
 21
-35.0816
  0
LINE
  8
0
 10
79.2791
 20
-35.0816
 11
79.5389
 21
-34.9051
  0
LINE
  8
0
 10
79.5389
 20
-34.9051
 11
79.7871
 21
-34.7126
  0
LINE
  8
0
 10
79.7871
 20
-34.7126
 11
80.0227
 21
-34.5048
  0
LINE
  8
0
 10
80.0227
 20
-34.5048
 11
80.2448
 21
-34.2827
  0
LINE
  8
0
 10
80.2448
 20
-34.2827
 11
80.4526
 21
-34.0471
  0
LINE
  8
0
 10
80.4526
 20
-34.0471
 11
80.6451
 21
-33.7989
  0
LINE
  8
0
 10
80.6451
 20
-33.7989
 11
80.8216
 21
-33.5391
  0
LINE
  8
0
 10
80.8216
 20
-33.5391
 11
80.9815
 21
-33.2688
  0
LINE
  8
0
 10
80.9815
 20
-33.2688
 11
81.1241
 21
-32.9889
  0
LINE
  8
0
 10
81.1241
 20
-32.9889
 11
81.2489
 21
-32.7006
  0
LINE
  8
0
 10
81.2489
 20
-32.7006
 11
81.3553
 21
-32.4051
  0
LINE
  8
0
 10
81.3553
 20
-32.4051
 11
81.4429
 21
-32.1034
  0
LINE
  8
0
 10
81.4429
 20
-32.1034
 11
81.5114
 21
-31.7969
  0
LINE
  8
0
 10
81.5114
 20
-31.7969
 11
81.5606
 21
-31.4867
  0
LINE
  8
0
 10
81.5606
 20
-31.4867
 11
81.5901
 21
-31.174
  0
LINE
  8
0
 10
81.5901
 20
-31.174
 11
81.6
 21
-30.86
  0
LINE
  8
0
 10
81.6
 20
-30.86
 11
81.6
 21
30.86
  0
LINE
  8
0
 10
81.6
 20
30.86
 11
81.5901
 21
31.174
  0
LINE
  8
0
 10
81.5901
 20
31.174
 11
81.5606
 21
31.4867
  0
LINE
  8
0
 10
81.5606
 20
31.4867
 11
81.5114
 21
31.7969
  0
LINE
  8
0
 10
81.5114
 20
31.7969
 11
81.4429
 21
32.1034
  0
LINE
  8
0
 10
81.4429
 20
32.1034
 11
81.3553
 21
32.4051
  0
LINE
  8
0
 10
81.3553
 20
32.4051
 11
81.2489
 21
32.7006
  0
LINE
  8
0
 10
81.2489
 20
32.7006
 11
81.1241
 21
32.9889
  0
LINE
  8
0
 10
81.1241
 20
32.9889
 11
80.9815
 21
33.2688
  0
LINE
  8
0
 10
80.9815
 20
33.2688
 11
80.8216
 21
33.5391
  0
LINE
  8
0
 10
80.8216
 20
33.5391
 11
80.6451
 21
33.7989
  0
LINE
  8
0
 10
80.6451
 20
33.7989
 11
80.4526
 21
34.0471
  0
LINE
  8
0
 10
80.4526
 20
34.0471
 11
80.2448
 21
34.2827
  0
LINE
  8
0
 10
80.2448
 20
34.2827
 11
80.0227
 21
34.5048
  0
LINE
  8
0
 10
80.0227
 20
34.5048
 11
79.7871
 21
34.7126
  0
LINE
  8
0
 10
79.7871
 20
34.7126
 11
79.5389
 21
34.9051
  0
LINE
  8
0
 10
79.5389
 20
34.9051
 11
79.2791
 21
35.0816
  0
LINE
  8
0
 10
79.2791
 20
35.0816
 11
79.0088
 21
35.2415
  0
LINE
  8
0
 10
79.0088
 20
35.2415
 11
78.7289
 21
35.3841
  0
LINE
  8
0
 10
78.7289
 20
35.3841
 11
78.4406
 21
35.5089
  0
LINE
  8
0
 10
78.4406
 20
35.5089
 11
78.1451
 21
35.6153
  0
LINE
  8
0
 10
78.1451
 20
35.6153
 11
77.8434
 21
35.7029
  0
LINE
  8
0
 10
77.8434
 20
35.7029
 11
77.5369
 21
35.7714
  0
LINE
  8
0
 10
77.5369
 20
35.7714
 11
77.2267
 21
35.8206
  0
LINE
  8
0
 10
77.2267
 20
35.8206
 11
76.914
 21
35.8501
  0
LINE
  8
0
 10
76.914
 20
35.8501
 11
76.6
 21
35.86
  0
LINE
  8
0
 10
76.6
 20
35.86
 11
0
 21
35.86
  0
LINE
  8
0
 10
0
 20
35.86
 11
-0.313952
 21
35.8501
  0
LINE
  8
0
 10
-0.313952
 20
35.8501
 11
-0.626666
 21
35.8206
  0
LINE
  8
0
 10
-0.626666
 20
35.8206
 11
-0.936906
 21
35.7714
  0
LINE
  8
0
 10
-0.936906
 20
35.7714
 11
-1.24345
 21
35.7029
  0
LINE
  8
0
 10
-1.24345
 20
35.7029
 11
-1.54508
 21
35.6153
  0
LINE
  8
0
 10
-1.54508
 20
35.6153
 11
-1.84062
 21
35.5089
  0
LINE
  8
0
 10
-1.84062
 20
35.5089
 11
-2.1289
 21
35.3841
  0
LINE
  8
0
 10
-2.1289
 20
35.3841
 11
-2.40877
 21
35.2415
  0
LINE
  8
0
 10
-2.40877
 20
35.2415
 11
-2.67913
 21
35.0816
  0
LINE
  8
0
 10
-2.67913
 20
35.0816
 11
-2.93893
 21
34.9051
  0
LINE
  8
0
 10
-2.93893
 20
34.9051
 11
-3.18712
 21
34.7126
  0
LINE
  8
0
 10
-3.18712
 20
34.7126
 11
-3.42274
 21
34.5048
  0
LINE
  8
0
 10
-3.42274
 20
34.5048
 11
-3.64484
 21
34.2827
  0
LINE
  8
0
 10
-3.64484
 20
34.2827
 11
-3.85257
 21
34.0471
  0
LINE
  8
0
 10
-3.85257
 20
34.0471
 11
-4.04508
 21
33.7989
  0
LINE
  8
0
 10
-4.04508
 20
33.7989
 11
-4.22164
 21
33.5391
  0
LINE
  8
0
 10
-4.22164
 20
33.5391
 11
-4.38153
 21
33.2688
  0
LINE
  8
0
 10
-4.38153
 20
33.2688
 11
-4.52413
 21
32.9889
  0
LINE
  8
0
 10
-4.52413
 20
32.9889
 11
-4.64888
 21
32.7006
  0
LINE
  8
0
 10
-4.64888
 20
32.7006
 11
-4.75528
 21
32.4051
  0
LINE
  8
0
 10
-4.75528
 20
32.4051
 11
-4.84292
 21
32.1034
  0
LINE
  8
0
 10
-4.84292
 20
32.1034
 11
-4.91144
 21
31.7969
  0
LINE
  8
0
 10
-4.91144
 20
31.7969
 11
-4.96057
 21
31.4867
  0
LINE
  8
0
 10
-4.96057
 20
31.4867
 11
-4.99013
 21
31.174
  0
LINE
  8
0
 10
-4.99013
 20
31.174
 11
-5
 21
30.86
  0
LINE
  8
0
 10
-5
 20
30.86
 11
-5
 21
-30.86
  0
LINE
  8
0
 10
-1.55
 20
-30.86
 11
-1.54694
 21
-30.7627
  0
LINE
  8
0
 10
-1.54694
 20
-30.7627
 11
-1.53778
 21
-30.6657
  0
LINE
  8
0
 10
-1.53778
 20
-30.6657
 11
-1.52254
 21
-30.5696
  0
LINE
  8
0
 10
-1.52254
 20
-30.5696
 11
-1.5013
 21
-30.4745
  0
LINE
  8
0
 10
-1.5013
 20
-30.4745
 11
-1.47414
 21
-30.381
  0
LINE
  8
0
 10
-1.47414
 20
-30.381
 11
-1.44115
 21
-30.2894
  0
LINE
  8
0
 10
-1.44115
 20
-30.2894
 11
-1.40248
 21
-30.2
  0
LINE
  8
0
 10
-1.40248
 20
-30.2
 11
-1.35827
 21
-30.1133
  0
LINE
  8
0
 10
-1.35827
 20
-30.1133
 11
-1.30871
 21
-30.0295
  0
LINE
  8
0
 10
-1.30871
 20
-30.0295
 11
-1.25398
 21
-29.9489
  0
LINE
  8
0
 10
-1.25398
 20
-29.9489
 11
-1.19429
 21
-29.872
  0
LINE
  8
0
 10
-1.19429
 20
-29.872
 11
-1.1299
 21
-29.799
  0
LINE
  8
0
 10
-1.1299
 20
-29.799
 11
-1.06105
 21
-29.7301
  0
LINE
  8
0
 10
-1.06105
 20
-29.7301
 11
-0.988007
 21
-29.6657
  0
LINE
  8
0
 10
-0.988007
 20
-29.6657
 11
-0.911067
 21
-29.606
  0
LINE
  8
0
 10
-0.911067
 20
-29.606
 11
-0.830531
 21
-29.5513
  0
LINE
  8
0
 10
-0.830531
 20
-29.5513
 11
-0.746717
 21
-29.5017
  0
LINE
  8
0
 10
-0.746717
 20
-29.5017
 11
-0.659958
 21
-29.4575
  0
LINE
  8
0
 10
-0.659958
 20
-29.4575
 11
-0.570593
 21
-29.4188
  0
LINE
  8
0
 10
-0.570593
 20
-29.4188
 11
-0.478976
 21
-29.3859
  0
LINE
  8
0
 10
-0.478976
 20
-29.3859
 11
-0.385468
 21
-29.3587
  0
LINE
  8
0
 10
-0.385468
 20
-29.3587
 11
-0.290441
 21
-29.3375
  0
LINE
  8
0
 10
-0.290441
 20
-29.3375
 11
-0.194266
 21
-29.3222
  0
LINE
  8
0
 10
-0.194266
 20
-29.3222
 11
-0.0973244
 21
-29.3131
  0
LINE
  8
0
 10
-0.0973244
 20
-29.3131
 11
0
 21
-29.31
  0
LINE
  8
0
 10
0
 20
-29.31
 11
0.0973244
 21
-29.3131
  0
LINE
  8
0
 10
0.0973244
 20
-29.3131
 11
0.194266
 21
-29.3222
  0
LINE
  8
0
 10
0.194266
 20
-29.3222
 11
0.290441
 21
-29.3375
  0
LINE
  8
0
 10
0.290441
 20
-29.3375
 11
0.385468
 21
-29.3587
  0
LINE
  8
0
 10
0.385468
 20
-29.3587
 11
0.478976
 21
-29.3859
  0
LINE
  8
0
 10
0.478976
 20
-29.3859
 11
0.570593
 21
-29.4188
  0
LINE
  8
0
 10
0.570593
 20
-29.4188
 11
0.659958
 21
-29.4575
  0
LINE
  8
0
 10
0.659958
 20
-29.4575
 11
0.746717
 21
-29.5017
  0
LINE
  8
0
 10
0.746717
 20
-29.5017
 11
0.830531
 21
-29.5513
  0
LINE
  8
0
 10
0.830531
 20
-29.5513
 11
0.911067
 21
-29.606
  0
LINE
  8
0
 10
0.911067
 20
-29.606
 11
0.988007
 21
-29.6657
  0
LINE
  8
0
 10
0.988007
 20
-29.6657
 11
1.06105
 21
-29.7301
  0
LINE
  8
0
 10
1.06105
 20
-29.7301
 11
1.1299
 21
-29.799
  0
LINE
  8
0
 10
1.1299
 20
-29.799
 11
1.19429
 21
-29.872
  0
LINE
  8
0
 10
1.19429
 20
-29.872
 11
1.25398
 21
-29.9489
  0
LINE
  8
0
 10
1.25398
 20
-29.9489
 11
1.30871
 21
-30.0295
  0
LINE
  8
0
 10
1.30871
 20
-30.0295
 11
1.35827
 21
-30.1133
  0
LINE
  8
0
 10
1.35827
 20
-30.1133
 11
1.40248
 21
-30.2
  0
LINE
  8
0
 10
1.40248
 20
-30.2
 11
1.44115
 21
-30.2894
  0
LINE
  8
0
 10
1.44115
 20
-30.2894
 11
1.47414
 21
-30.381
  0
LINE
  8
0
 10
1.47414
 20
-30.381
 11
1.5013
 21
-30.4745
  0
LINE
  8
0
 10
1.5013
 20
-30.4745
 11
1.52254
 21
-30.5696
  0
LINE
  8
0
 10
1.52254
 20
-30.5696
 11
1.53778
 21
-30.6657
  0
LINE
  8
0
 10
1.53778
 20
-30.6657
 11
1.54694
 21
-30.7627
  0
LINE
  8
0
 10
1.54694
 20
-30.7627
 11
1.55
 21
-30.86
  0
LINE
  8
0
 10
1.55
 20
-30.86
 11
1.54694
 21
-30.9573
  0
LINE
  8
0
 10
1.54694
 20
-30.9573
 11
1.53778
 21
-31.0543
  0
LINE
  8
0
 10
1.53778
 20
-31.0543
 11
1.52254
 21
-31.1504
  0
LINE
  8
0
 10
1.52254
 20
-31.1504
 11
1.5013
 21
-31.2455
  0
LINE
  8
0
 10
1.5013
 20
-31.2455
 11
1.47414
 21
-31.339
  0
LINE
  8
0
 10
1.47414
 20
-31.339
 11
1.44115
 21
-31.4306
  0
LINE
  8
0
 10
1.44115
 20
-31.4306
 11
1.40248
 21
-31.52
  0
LINE
  8
0
 10
1.40248
 20
-31.52
 11
1.35827
 21
-31.6067
  0
LINE
  8
0
 10
1.35827
 20
-31.6067
 11
1.30871
 21
-31.6905
  0
LINE
  8
0
 10
1.30871
 20
-31.6905
 11
1.25398
 21
-31.7711
  0
LINE
  8
0
 10
1.25398
 20
-31.7711
 11
1.19429
 21
-31.848
  0
LINE
  8
0
 10
1.19429
 20
-31.848
 11
1.1299
 21
-31.921
  0
LINE
  8
0
 10
1.1299
 20
-31.921
 11
1.06105
 21
-31.9899
  0
LINE
  8
0
 10
1.06105
 20
-31.9899
 11
0.988007
 21
-32.0543
  0
LINE
  8
0
 10
0.988007
 20
-32.0543
 11
0.911067
 21
-32.114
  0
LINE
  8
0
 10
0.911067
 20
-32.114
 11
0.830531
 21
-32.1687
  0
LINE
  8
0
 10
0.830531
 20
-32.1687
 11
0.746717
 21
-32.2183
  0
LINE
  8
0
 10
0.746717
 20
-32.2183
 11
0.659958
 21
-32.2625
  0
LINE
  8
0
 10
0.659958
 20
-32.2625
 11
0.570593
 21
-32.3012
  0
LINE
  8
0
 10
0.570593
 20
-32.3012
 11
0.478976
 21
-32.3341
  0
LINE
  8
0
 10
0.478976
 20
-32.3341
 11
0.385468
 21
-32.3613
  0
LINE
  8
0
 10
0.385468
 20
-32.3613
 11
0.290441
 21
-32.3825
  0
LINE
  8
0
 10
0.290441
 20
-32.3825
 11
0.194266
 21
-32.3978
  0
LINE
  8
0
 10
0.194266
 20
-32.3978
 11
0.0973244
 21
-32.4069
  0
LINE
  8
0
 10
0.0973244
 20
-32.4069
 11
0
 21
-32.41
  0
LINE
  8
0
 10
0
 20
-32.41
 11
-0.0973244
 21
-32.4069
  0
LINE
  8
0
 10
-0.0973244
 20
-32.4069
 11
-0.194266
 21
-32.3978
  0
LINE
  8
0
 10
-0.194266
 20
-32.3978
 11
-0.290441
 21
-32.3825
  0
LINE
  8
0
 10
-0.290441
 20
-32.3825
 11
-0.385468
 21
-32.3613
  0
LINE
  8
0
 10
-0.385468
 20
-32.3613
 11
-0.478976
 21
-32.3341
  0
LINE
  8
0
 10
-0.478976
 20
-32.3341
 11
-0.570593
 21
-32.3012
  0
LINE
  8
0
 10
-0.570593
 20
-32.3012
 11
-0.659958
 21
-32.2625
  0
LINE
  8
0
 10
-0.659958
 20
-32.2625
 11
-0.746717
 21
-32.2183
  0
LINE
  8
0
 10
-0.746717
 20
-32.2183
 11
-0.830531
 21
-32.1687
  0
LINE
  8
0
 10
-0.830531
 20
-32.1687
 11
-0.911067
 21
-32.114
  0
LINE
  8
0
 10
-0.911067
 20
-32.114
 11
-0.988007
 21
-32.0543
  0
LINE
  8
0
 10
-0.988007
 20
-32.0543
 11
-1.06105
 21
-31.9899
  0
LINE
  8
0
 10
-1.06105
 20
-31.9899
 11
-1.1299
 21
-31.921
  0
LINE
  8
0
 10
-1.1299
 20
-31.921
 11
-1.19429
 21
-31.848
  0
LINE
  8
0
 10
-1.19429
 20
-31.848
 11
-1.25398
 21
-31.7711
  0
LINE
  8
0
 10
-1.25398
 20
-31.7711
 11
-1.30871
 21
-31.6905
  0
LINE
  8
0
 10
-1.30871
 20
-31.6905
 11
-1.35827
 21
-31.6067
  0
LINE
  8
0
 10
-1.35827
 20
-31.6067
 11
-1.40248
 21
-31.52
  0
LINE
  8
0
 10
-1.40248
 20
-31.52
 11
-1.44115
 21
-31.4306
  0
LINE
  8
0
 10
-1.44115
 20
-31.4306
 11
-1.47414
 21
-31.339
  0
LINE
  8
0
 10
-1.47414
 20
-31.339
 11
-1.5013
 21
-31.2455
  0
LINE
  8
0
 10
-1.5013
 20
-31.2455
 11
-1.52254
 21
-31.1504
  0
LINE
  8
0
 10
-1.52254
 20
-31.1504
 11
-1.53778
 21
-31.0543
  0
LINE
  8
0
 10
-1.53778
 20
-31.0543
 11
-1.54694
 21
-30.9573
  0
LINE
  8
0
 10
-1.54694
 20
-30.9573
 11
-1.55
 21
-30.86
  0
LINE
  8
0
 10
-1.55
 20
30.86
 11
-1.54694
 21
30.9573
  0
LINE
  8
0
 10
-1.54694
 20
30.9573
 11
-1.53778
 21
31.0543
  0
LINE
  8
0
 10
-1.53778
 20
31.0543
 11
-1.52254
 21
31.1504
  0
LINE
  8
0
 10
-1.52254
 20
31.1504
 11
-1.5013
 21
31.2455
  0
LINE
  8
0
 10
-1.5013
 20
31.2455
 11
-1.47414
 21
31.339
  0
LINE
  8
0
 10
-1.47414
 20
31.339
 11
-1.44115
 21
31.4306
  0
LINE
  8
0
 10
-1.44115
 20
31.4306
 11
-1.40248
 21
31.52
  0
LINE
  8
0
 10
-1.40248
 20
31.52
 11
-1.35827
 21
31.6067
  0
LINE
  8
0
 10
-1.35827
 20
31.6067
 11
-1.30871
 21
31.6905
  0
LINE
  8
0
 10
-1.30871
 20
31.6905
 11
-1.25398
 21
31.7711
  0
LINE
  8
0
 10
-1.25398
 20
31.7711
 11
-1.19429
 21
31.848
  0
LINE
  8
0
 10
-1.19429
 20
31.848
 11
-1.1299
 21
31.921
  0
LINE
  8
0
 10
-1.1299
 20
31.921
 11
-1.06105
 21
31.9899
  0
LINE
  8
0
 10
-1.06105
 20
31.9899
 11
-0.988007
 21
32.0543
  0
LINE
  8
0
 10
-0.988007
 20
32.0543
 11
-0.911067
 21
32.114
  0
LINE
  8
0
 10
-0.911067
 20
32.114
 11
-0.830531
 21
32.1687
  0
LINE
  8
0
 10
-0.830531
 20
32.1687
 11
-0.746717
 21
32.2183
  0
LINE
  8
0
 10
-0.746717
 20
32.2183
 11
-0.659958
 21
32.2625
  0
LINE
  8
0
 10
-0.659958
 20
32.2625
 11
-0.570593
 21
32.3012
  0
LINE
  8
0
 10
-0.570593
 20
32.3012
 11
-0.478976
 21
32.3341
  0
LINE
  8
0
 10
-0.478976
 20
32.3341
 11
-0.385468
 21
32.3613
  0
LINE
  8
0
 10
-0.385468
 20
32.3613
 11
-0.290441
 21
32.3825
  0
LINE
  8
0
 10
-0.290441
 20
32.3825
 11
-0.194266
 21
32.3978
  0
LINE
  8
0
 10
-0.194266
 20
32.3978
 11
-0.0973244
 21
32.4069
  0
LINE
  8
0
 10
-0.0973244
 20
32.4069
 11
0
 21
32.41
  0
LINE
  8
0
 10
0
 20
32.41
 11
0.0973244
 21
32.4069
  0
LINE
  8
0
 10
0.0973244
 20
32.4069
 11
0.194266
 21
32.3978
  0
LINE
  8
0
 10
0.194266
 20
32.3978
 11
0.290441
 21
32.3825
  0
LINE
  8
0
 10
0.290441
 20
32.3825
 11
0.385468
 21
32.3613
  0
LINE
  8
0
 10
0.385468
 20
32.3613
 11
0.478976
 21
32.3341
  0
LINE
  8
0
 10
0.478976
 20
32.3341
 11
0.570593
 21
32.3012
  0
LINE
  8
0
 10
0.570593
 20
32.3012
 11
0.659958
 21
32.2625
  0
LINE
  8
0
 10
0.659958
 20
32.2625
 11
0.746717
 21
32.2183
  0
LINE
  8
0
 10
0.746717
 20
32.2183
 11
0.830531
 21
32.1687
  0
LINE
  8
0
 10
0.830531
 20
32.1687
 11
0.911067
 21
32.114
  0
LINE
  8
0
 10
0.911067
 20
32.114
 11
0.988007
 21
32.0543
  0
LINE
  8
0
 10
0.988007
 20
32.0543
 11
1.06105
 21
31.9899
  0
LINE
  8
0
 10
1.06105
 20
31.9899
 11
1.1299
 21
31.921
  0
LINE
  8
0
 10
1.1299
 20
31.921
 11
1.19429
 21
31.848
  0
LINE
  8
0
 10
1.19429
 20
31.848
 11
1.25398
 21
31.7711
  0
LINE
  8
0
 10
1.25398
 20
31.7711
 11
1.30871
 21
31.6905
  0
LINE
  8
0
 10
1.30871
 20
31.6905
 11
1.35827
 21
31.6067
  0
LINE
  8
0
 10
1.35827
 20
31.6067
 11
1.40248
 21
31.52
  0
LINE
  8
0
 10
1.40248
 20
31.52
 11
1.44115
 21
31.4306
  0
LINE
  8
0
 10
1.44115
 20
31.4306
 11
1.47414
 21
31.339
  0
LINE
  8
0
 10
1.47414
 20
31.339
 11
1.5013
 21
31.2455
  0
LINE
  8
0
 10
1.5013
 20
31.2455
 11
1.52254
 21
31.1504
  0
LINE
  8
0
 10
1.52254
 20
31.1504
 11
1.53778
 21
31.0543
  0
LINE
  8
0
 10
1.53778
 20
31.0543
 11
1.54694
 21
30.9573
  0
LINE
  8
0
 10
1.54694
 20
30.9573
 11
1.55
 21
30.86
  0
LINE
  8
0
 10
1.55
 20
30.86
 11
1.54694
 21
30.7627
  0
LINE
  8
0
 10
1.54694
 20
30.7627
 11
1.53778
 21
30.6657
  0
LINE
  8
0
 10
1.53778
 20
30.6657
 11
1.52254
 21
30.5696
  0
LINE
  8
0
 10
1.52254
 20
30.5696
 11
1.5013
 21
30.4745
  0
LINE
  8
0
 10
1.5013
 20
30.4745
 11
1.47414
 21
30.381
  0
LINE
  8
0
 10
1.47414
 20
30.381
 11
1.44115
 21
30.2894
  0
LINE
  8
0
 10
1.44115
 20
30.2894
 11
1.40248
 21
30.2
  0
LINE
  8
0
 10
1.40248
 20
30.2
 11
1.35827
 21
30.1133
  0
LINE
  8
0
 10
1.35827
 20
30.1133
 11
1.30871
 21
30.0295
  0
LINE
  8
0
 10
1.30871
 20
30.0295
 11
1.25398
 21
29.9489
  0
LINE
  8
0
 10
1.25398
 20
29.9489
 11
1.19429
 21
29.872
  0
LINE
  8
0
 10
1.19429
 20
29.872
 11
1.1299
 21
29.799
  0
LINE
  8
0
 10
1.1299
 20
29.799
 11
1.06105
 21
29.7301
  0
LINE
  8
0
 10
1.06105
 20
29.7301
 11
0.988007
 21
29.6657
  0
LINE
  8
0
 10
0.988007
 20
29.6657
 11
0.911067
 21
29.606
  0
LINE
  8
0
 10
0.911067
 20
29.606
 11
0.830531
 21
29.5513
  0
LINE
  8
0
 10
0.830531
 20
29.5513
 11
0.746717
 21
29.5017
  0
LINE
  8
0
 10
0.746717
 20
29.5017
 11
0.659958
 21
29.4575
  0
LINE
  8
0
 10
0.659958
 20
29.4575
 11
0.570593
 21
29.4188
  0
LINE
  8
0
 10
0.570593
 20
29.4188
 11
0.478976
 21
29.3859
  0
LINE
  8
0
 10
0.478976
 20
29.3859
 11
0.385468
 21
29.3587
  0
LINE
  8
0
 10
0.385468
 20
29.3587
 11
0.290441
 21
29.3375
  0
LINE
  8
0
 10
0.290441
 20
29.3375
 11
0.194266
 21
29.3222
  0
LINE
  8
0
 10
0.194266
 20
29.3222
 11
0.0973244
 21
29.3131
  0
LINE
  8
0
 10
0.0973244
 20
29.3131
 11
0
 21
29.31
  0
LINE
  8
0
 10
0
 20
29.31
 11
-0.0973244
 21
29.3131
  0
LINE
  8
0
 10
-0.0973244
 20
29.3131
 11
-0.194266
 21
29.3222
  0
LINE
  8
0
 10
-0.194266
 20
29.3222
 11
-0.290441
 21
29.3375
  0
LINE
  8
0
 10
-0.290441
 20
29.3375
 11
-0.385468
 21
29.3587
  0
LINE
  8
0
 10
-0.385468
 20
29.3587
 11
-0.478976
 21
29.3859
  0
LINE
  8
0
 10
-0.478976
 20
29.3859
 11
-0.570593
 21
29.4188
  0
LINE
  8
0
 10
-0.570593
 20
29.4188
 11
-0.659958
 21
29.4575
  0
LINE
  8
0
 10
-0.659958
 20
29.4575
 11
-0.746717
 21
29.5017
  0
LINE
  8
0
 10
-0.746717
 20
29.5017
 11
-0.830531
 21
29.5513
  0
LINE
  8
0
 10
-0.830531
 20
29.5513
 11
-0.911067
 21
29.606
  0
LINE
  8
0
 10
-0.911067
 20
29.606
 11
-0.988007
 21
29.6657
  0
LINE
  8
0
 10
-0.988007
 20
29.6657
 11
-1.06105
 21
29.7301
  0
LINE
  8
0
 10
-1.06105
 20
29.7301
 11
-1.1299
 21
29.799
  0
LINE
  8
0
 10
-1.1299
 20
29.799
 11
-1.19429
 21
29.872
  0
LINE
  8
0
 10
-1.19429
 20
29.872
 11
-1.25398
 21
29.9489
  0
LINE
  8
0
 10
-1.25398
 20
29.9489
 11
-1.30871
 21
30.0295
  0
LINE
  8
0
 10
-1.30871
 20
30.0295
 11
-1.35827
 21
30.1133
  0
LINE
  8
0
 10
-1.35827
 20
30.1133
 11
-1.40248
 21
30.2
  0
LINE
  8
0
 10
-1.40248
 20
30.2
 11
-1.44115
 21
30.2894
  0
LINE
  8
0
 10
-1.44115
 20
30.2894
 11
-1.47414
 21
30.381
  0
LINE
  8
0
 10
-1.47414
 20
30.381
 11
-1.5013
 21
30.4745
  0
LINE
  8
0
 10
-1.5013
 20
30.4745
 11
-1.52254
 21
30.5696
  0
LINE
  8
0
 10
-1.52254
 20
30.5696
 11
-1.53778
 21
30.6657
  0
LINE
  8
0
 10
-1.53778
 20
30.6657
 11
-1.54694
 21
30.7627
  0
LINE
  8
0
 10
-1.54694
 20
30.7627
 11
-1.55
 21
30.86
  0
LINE
  8
0
 10
-1.375
 20
-24.5
 11
-1.37229
 21
-24.4137
  0
LINE
  8
0
 10
-1.37229
 20
-24.4137
 11
-1.36416
 21
-24.3277
  0
LINE
  8
0
 10
-1.36416
 20
-24.3277
 11
-1.35064
 21
-24.2424
  0
LINE
  8
0
 10
-1.35064
 20
-24.2424
 11
-1.3318
 21
-24.1581
  0
LINE
  8
0
 10
-1.3318
 20
-24.1581
 11
-1.3077
 21
-24.0751
  0
LINE
  8
0
 10
-1.3077
 20
-24.0751
 11
-1.27844
 21
-23.9938
  0
LINE
  8
0
 10
-1.27844
 20
-23.9938
 11
-1.24414
 21
-23.9146
  0
LINE
  8
0
 10
-1.24414
 20
-23.9146
 11
-1.20492
 21
-23.8376
  0
LINE
  8
0
 10
-1.20492
 20
-23.8376
 11
-1.16095
 21
-23.7632
  0
LINE
  8
0
 10
-1.16095
 20
-23.7632
 11
-1.1124
 21
-23.6918
  0
LINE
  8
0
 10
-1.1124
 20
-23.6918
 11
-1.05945
 21
-23.6235
  0
LINE
  8
0
 10
-1.05945
 20
-23.6235
 11
-1.00233
 21
-23.5587
  0
LINE
  8
0
 10
-1.00233
 20
-23.5587
 11
-0.941252
 21
-23.4977
  0
LINE
  8
0
 10
-0.941252
 20
-23.4977
 11
-0.876457
 21
-23.4405
  0
LINE
  8
0
 10
-0.876457
 20
-23.4405
 11
-0.808205
 21
-23.3876
  0
LINE
  8
0
 10
-0.808205
 20
-23.3876
 11
-0.736761
 21
-23.339
  0
LINE
  8
0
 10
-0.736761
 20
-23.339
 11
-0.662411
 21
-23.2951
  0
LINE
  8
0
 10
-0.662411
 20
-23.2951
 11
-0.585446
 21
-23.2559
  0
LINE
  8
0
 10
-0.585446
 20
-23.2559
 11
-0.506171
 21
-23.2216
  0
LINE
  8
0
 10
-0.506171
 20
-23.2216
 11
-0.424898
 21
-23.1923
  0
LINE
  8
0
 10
-0.424898
 20
-23.1923
 11
-0.341949
 21
-23.1682
  0
LINE
  8
0
 10
-0.341949
 20
-23.1682
 11
-0.257648
 21
-23.1494
  0
LINE
  8
0
 10
-0.257648
 20
-23.1494
 11
-0.172333
 21
-23.1358
  0
LINE
  8
0
 10
-0.172333
 20
-23.1358
 11
-0.0863361
 21
-23.1277
  0
LINE
  8
0
 10
-0.0863361
 20
-23.1277
 11
0
 21
-23.125
  0
LINE
  8
0
 10
0
 20
-23.125
 11
0.0863361
 21
-23.1277
  0
LINE
  8
0
 10
0.0863361
 20
-23.1277
 11
0.172333
 21
-23.1358
  0
LINE
  8
0
 10
0.172333
 20
-23.1358
 11
0.257648
 21
-23.1494
  0
LINE
  8
0
 10
0.257648
 20
-23.1494
 11
0.341949
 21
-23.1682
  0
LINE
  8
0
 10
0.341949
 20
-23.1682
 11
0.424898
 21
-23.1923
  0
LINE
  8
0
 10
0.424898
 20
-23.1923
 11
0.506171
 21
-23.2216
  0
LINE
  8
0
 10
0.506171
 20
-23.2216
 11
0.585446
 21
-23.2559
  0
LINE
  8
0
 10
0.585446
 20
-23.2559
 11
0.662411
 21
-23.2951
  0
LINE
  8
0
 10
0.662411
 20
-23.2951
 11
0.736761
 21
-23.339
  0
LINE
  8
0
 10
0.736761
 20
-23.339
 11
0.808205
 21
-23.3876
  0
LINE
  8
0
 10
0.808205
 20
-23.3876
 11
0.876457
 21
-23.4405
  0
LINE
  8
0
 10
0.876457
 20
-23.4405
 11
0.941252
 21
-23.4977
  0
LINE
  8
0
 10
0.941252
 20
-23.4977
 11
1.00233
 21
-23.5587
  0
LINE
  8
0
 10
1.00233
 20
-23.5587
 11
1.05945
 21
-23.6235
  0
LINE
  8
0
 10
1.05945
 20
-23.6235
 11
1.1124
 21
-23.6918
  0
LINE
  8
0
 10
1.1124
 20
-23.6918
 11
1.16095
 21
-23.7632
  0
LINE
  8
0
 10
1.16095
 20
-23.7632
 11
1.20492
 21
-23.8376
  0
LINE
  8
0
 10
1.20492
 20
-23.8376
 11
1.24414
 21
-23.9146
  0
LINE
  8
0
 10
1.24414
 20
-23.9146
 11
1.27844
 21
-23.9938
  0
LINE
  8
0
 10
1.27844
 20
-23.9938
 11
1.3077
 21
-24.0751
  0
LINE
  8
0
 10
1.3077
 20
-24.0751
 11
1.3318
 21
-24.1581
  0
LINE
  8
0
 10
1.3318
 20
-24.1581
 11
1.35064
 21
-24.2424
  0
LINE
  8
0
 10
1.35064
 20
-24.2424
 11
1.36416
 21
-24.3277
  0
LINE
  8
0
 10
1.36416
 20
-24.3277
 11
1.37229
 21
-24.4137
  0
LINE
  8
0
 10
1.37229
 20
-24.4137
 11
1.375
 21
-24.5
  0
LINE
  8
0
 10
1.375
 20
-24.5
 11
1.37229
 21
-24.5863
  0
LINE
  8
0
 10
1.37229
 20
-24.5863
 11
1.36416
 21
-24.6723
  0
LINE
  8
0
 10
1.36416
 20
-24.6723
 11
1.35064
 21
-24.7576
  0
LINE
  8
0
 10
1.35064
 20
-24.7576
 11
1.3318
 21
-24.8419
  0
LINE
  8
0
 10
1.3318
 20
-24.8419
 11
1.3077
 21
-24.9249
  0
LINE
  8
0
 10
1.3077
 20
-24.9249
 11
1.27844
 21
-25.0062
  0
LINE
  8
0
 10
1.27844
 20
-25.0062
 11
1.24414
 21
-25.0854
  0
LINE
  8
0
 10
1.24414
 20
-25.0854
 11
1.20492
 21
-25.1624
  0
LINE
  8
0
 10
1.20492
 20
-25.1624
 11
1.16095
 21
-25.2368
  0
LINE
  8
0
 10
1.16095
 20
-25.2368
 11
1.1124
 21
-25.3082
  0
LINE
  8
0
 10
1.1124
 20
-25.3082
 11
1.05945
 21
-25.3765
  0
LINE
  8
0
 10
1.05945
 20
-25.3765
 11
1.00233
 21
-25.4413
  0
LINE
  8
0
 10
1.00233
 20
-25.4413
 11
0.941252
 21
-25.5023
  0
LINE
  8
0
 10
0.941252
 20
-25.5023
 11
0.876457
 21
-25.5595
  0
LINE
  8
0
 10
0.876457
 20
-25.5595
 11
0.808205
 21
-25.6124
  0
LINE
  8
0
 10
0.808205
 20
-25.6124
 11
0.736761
 21
-25.661
  0
LINE
  8
0
 10
0.736761
 20
-25.661
 11
0.662411
 21
-25.7049
  0
LINE
  8
0
 10
0.662411
 20
-25.7049
 11
0.585446
 21
-25.7441
  0
LINE
  8
0
 10
0.585446
 20
-25.7441
 11
0.506171
 21
-25.7784
  0
LINE
  8
0
 10
0.506171
 20
-25.7784
 11
0.424898
 21
-25.8077
  0
LINE
  8
0
 10
0.424898
 20
-25.8077
 11
0.341949
 21
-25.8318
  0
LINE
  8
0
 10
0.341949
 20
-25.8318
 11
0.257648
 21
-25.8506
  0
LINE
  8
0
 10
0.257648
 20
-25.8506
 11
0.172333
 21
-25.8642
  0
LINE
  8
0
 10
0.172333
 20
-25.8642
 11
0.0863361
 21
-25.8723
  0
LINE
  8
0
 10
0.0863361
 20
-25.8723
 11
0
 21
-25.875
  0
LINE
  8
0
 10
0
 20
-25.875
 11
-0.0863361
 21
-25.8723
  0
LINE
  8
0
 10
-0.0863361
 20
-25.8723
 11
-0.172333
 21
-25.8642
  0
LINE
  8
0
 10
-0.172333
 20
-25.8642
 11
-0.257648
 21
-25.8506
  0
LINE
  8
0
 10
-0.257648
 20
-25.8506
 11
-0.341949
 21
-25.8318
  0
LINE
  8
0
 10
-0.341949
 20
-25.8318
 11
-0.424898
 21
-25.8077
  0
LINE
  8
0
 10
-0.424898
 20
-25.8077
 11
-0.506171
 21
-25.7784
  0
LINE
  8
0
 10
-0.506171
 20
-25.7784
 11
-0.585446
 21
-25.7441
  0
LINE
  8
0
 10
-0.585446
 20
-25.7441
 11
-0.662411
 21
-25.7049
  0
LINE
  8
0
 10
-0.662411
 20
-25.7049
 11
-0.736761
 21
-25.661
  0
LINE
  8
0
 10
-0.736761
 20
-25.661
 11
-0.808205
 21
-25.6124
  0
LINE
  8
0
 10
-0.808205
 20
-25.6124
 11
-0.876457
 21
-25.5595
  0
LINE
  8
0
 10
-0.876457
 20
-25.5595
 11
-0.941252
 21
-25.5023
  0
LINE
  8
0
 10
-0.941252
 20
-25.5023
 11
-1.00233
 21
-25.4413
  0
LINE
  8
0
 10
-1.00233
 20
-25.4413
 11
-1.05945
 21
-25.3765
  0
LINE
  8
0
 10
-1.05945
 20
-25.3765
 11
-1.1124
 21
-25.3082
  0
LINE
  8
0
 10
-1.1124
 20
-25.3082
 11
-1.16095
 21
-25.2368
  0
LINE
  8
0
 10
-1.16095
 20
-25.2368
 11
-1.20492
 21
-25.1624
  0
LINE
  8
0
 10
-1.20492
 20
-25.1624
 11
-1.24414
 21
-25.0854
  0
LINE
  8
0
 10
-1.24414
 20
-25.0854
 11
-1.27844
 21
-25.0062
  0
LINE
  8
0
 10
-1.27844
 20
-25.0062
 11
-1.3077
 21
-24.9249
  0
LINE
  8
0
 10
-1.3077
 20
-24.9249
 11
-1.3318
 21
-24.8419
  0
LINE
  8
0
 10
-1.3318
 20
-24.8419
 11
-1.35064
 21
-24.7576
  0
LINE
  8
0
 10
-1.35064
 20
-24.7576
 11
-1.36416
 21
-24.6723
  0
LINE
  8
0
 10
-1.36416
 20
-24.6723
 11
-1.37229
 21
-24.5863
  0
LINE
  8
0
 10
-1.37229
 20
-24.5863
 11
-1.375
 21
-24.5
  0
LINE
  8
0
 10
-1.375
 20
24.5
 11
-1.37229
 21
24.5863
  0
LINE
  8
0
 10
-1.37229
 20
24.5863
 11
-1.36416
 21
24.6723
  0
LINE
  8
0
 10
-1.36416
 20
24.6723
 11
-1.35064
 21
24.7576
  0
LINE
  8
0
 10
-1.35064
 20
24.7576
 11
-1.3318
 21
24.8419
  0
LINE
  8
0
 10
-1.3318
 20
24.8419
 11
-1.3077
 21
24.9249
  0
LINE
  8
0
 10
-1.3077
 20
24.9249
 11
-1.27844
 21
25.0062
  0
LINE
  8
0
 10
-1.27844
 20
25.0062
 11
-1.24414
 21
25.0854
  0
LINE
  8
0
 10
-1.24414
 20
25.0854
 11
-1.20492
 21
25.1624
  0
LINE
  8
0
 10
-1.20492
 20
25.1624
 11
-1.16095
 21
25.2368
  0
LINE
  8
0
 10
-1.16095
 20
25.2368
 11
-1.1124
 21
25.3082
  0
LINE
  8
0
 10
-1.1124
 20
25.3082
 11
-1.05945
 21
25.3765
  0
LINE
  8
0
 10
-1.05945
 20
25.3765
 11
-1.00233
 21
25.4413
  0
LINE
  8
0
 10
-1.00233
 20
25.4413
 11
-0.941252
 21
25.5023
  0
LINE
  8
0
 10
-0.941252
 20
25.5023
 11
-0.876457
 21
25.5595
  0
LINE
  8
0
 10
-0.876457
 20
25.5595
 11
-0.808205
 21
25.6124
  0
LINE
  8
0
 10
-0.808205
 20
25.6124
 11
-0.736761
 21
25.661
  0
LINE
  8
0
 10
-0.736761
 20
25.661
 11
-0.662411
 21
25.7049
  0
LINE
  8
0
 10
-0.662411
 20
25.7049
 11
-0.585446
 21
25.7441
  0
LINE
  8
0
 10
-0.585446
 20
25.7441
 11
-0.506171
 21
25.7784
  0
LINE
  8
0
 10
-0.506171
 20
25.7784
 11
-0.424898
 21
25.8077
  0
LINE
  8
0
 10
-0.424898
 20
25.8077
 11
-0.341949
 21
25.8318
  0
LINE
  8
0
 10
-0.341949
 20
25.8318
 11
-0.257648
 21
25.8506
  0
LINE
  8
0
 10
-0.257648
 20
25.8506
 11
-0.172333
 21
25.8642
  0
LINE
  8
0
 10
-0.172333
 20
25.8642
 11
-0.0863361
 21
25.8723
  0
LINE
  8
0
 10
-0.0863361
 20
25.8723
 11
0
 21
25.875
  0
LINE
  8
0
 10
0
 20
25.875
 11
0.0863361
 21
25.8723
  0
LINE
  8
0
 10
0.0863361
 20
25.8723
 11
0.172333
 21
25.8642
  0
LINE
  8
0
 10
0.172333
 20
25.8642
 11
0.257648
 21
25.8506
  0
LINE
  8
0
 10
0.257648
 20
25.8506
 11
0.341949
 21
25.8318
  0
LINE
  8
0
 10
0.341949
 20
25.8318
 11
0.424898
 21
25.8077
  0
LINE
  8
0
 10
0.424898
 20
25.8077
 11
0.506171
 21
25.7784
  0
LINE
  8
0
 10
0.506171
 20
25.7784
 11
0.585446
 21
25.7441
  0
LINE
  8
0
 10
0.585446
 20
25.7441
 11
0.662411
 21
25.7049
  0
LINE
  8
0
 10
0.662411
 20
25.7049
 11
0.736761
 21
25.661
  0
LINE
  8
0
 10
0.736761
 20
25.661
 11
0.808205
 21
25.6124
  0
LINE
  8
0
 10
0.808205
 20
25.6124
 11
0.876457
 21
25.5595
  0
LINE
  8
0
 10
0.876457
 20
25.5595
 11
0.941252
 21
25.5023
  0
LINE
  8
0
 10
0.941252
 20
25.5023
 11
1.00233
 21
25.4413
  0
LINE
  8
0
 10
1.00233
 20
25.4413
 11
1.05945
 21
25.3765
  0
LINE
  8
0
 10
1.05945
 20
25.3765
 11
1.1124
 21
25.3082
  0
LINE
  8
0
 10
1.1124
 20
25.3082
 11
1.16095
 21
25.2368
  0
LINE
  8
0
 10
1.16095
 20
25.2368
 11
1.20492
 21
25.1624
  0
LINE
  8
0
 10
1.20492
 20
25.1624
 11
1.24414
 21
25.0854
  0
LINE
  8
0
 10
1.24414
 20
25.0854
 11
1.27844
 21
25.0062
  0
LINE
  8
0
 10
1.27844
 20
25.0062
 11
1.3077
 21
24.9249
  0
LINE
  8
0
 10
1.3077
 20
24.9249
 11
1.3318
 21
24.8419
  0
LINE
  8
0
 10
1.3318
 20
24.8419
 11
1.35064
 21
24.7576
  0
LINE
  8
0
 10
1.35064
 20
24.7576
 11
1.36416
 21
24.6723
  0
LINE
  8
0
 10
1.36416
 20
24.6723
 11
1.37229
 21
24.5863
  0
LINE
  8
0
 10
1.37229
 20
24.5863
 11
1.375
 21
24.5
  0
LINE
  8
0
 10
1.375
 20
24.5
 11
1.37229
 21
24.4137
  0
LINE
  8
0
 10
1.37229
 20
24.4137
 11
1.36416
 21
24.3277
  0
LINE
  8
0
 10
1.36416
 20
24.3277
 11
1.35064
 21
24.2424
  0
LINE
  8
0
 10
1.35064
 20
24.2424
 11
1.3318
 21
24.1581
  0
LINE
  8
0
 10
1.3318
 20
24.1581
 11
1.3077
 21
24.0751
  0
LINE
  8
0
 10
1.3077
 20
24.0751
 11
1.27844
 21
23.9938
  0
LINE
  8
0
 10
1.27844
 20
23.9938
 11
1.24414
 21
23.9146
  0
LINE
  8
0
 10
1.24414
 20
23.9146
 11
1.20492
 21
23.8376
  0
LINE
  8
0
 10
1.20492
 20
23.8376
 11
1.16095
 21
23.7632
  0
LINE
  8
0
 10
1.16095
 20
23.7632
 11
1.1124
 21
23.6918
  0
LINE
  8
0
 10
1.1124
 20
23.6918
 11
1.05945
 21
23.6235
  0
LINE
  8
0
 10
1.05945
 20
23.6235
 11
1.00233
 21
23.5587
  0
LINE
  8
0
 10
1.00233
 20
23.5587
 11
0.941252
 21
23.4977
  0
LINE
  8
0
 10
0.941252
 20
23.4977
 11
0.876457
 21
23.4405
  0
LINE
  8
0
 10
0.876457
 20
23.4405
 11
0.808205
 21
23.3876
  0
LINE
  8
0
 10
0.808205
 20
23.3876
 11
0.736761
 21
23.339
  0
LINE
  8
0
 10
0.736761
 20
23.339
 11
0.662411
 21
23.2951
  0
LINE
  8
0
 10
0.662411
 20
23.2951
 11
0.585446
 21
23.2559
  0
LINE
  8
0
 10
0.585446
 20
23.2559
 11
0.506171
 21
23.2216
  0
LINE
  8
0
 10
0.506171
 20
23.2216
 11
0.424898
 21
23.1923
  0
LINE
  8
0
 10
0.424898
 20
23.1923
 11
0.341949
 21
23.1682
  0
LINE
  8
0
 10
0.341949
 20
23.1682
 11
0.257648
 21
23.1494
  0
LINE
  8
0
 10
0.257648
 20
23.1494
 11
0.172333
 21
23.1358
  0
LINE
  8
0
 10
0.172333
 20
23.1358
 11
0.0863361
 21
23.1277
  0
LINE
  8
0
 10
0.0863361
 20
23.1277
 11
0
 21
23.125
  0
LINE
  8
0
 10
0
 20
23.125
 11
-0.0863361
 21
23.1277
  0
LINE
  8
0
 10
-0.0863361
 20
23.1277
 11
-0.172333
 21
23.1358
  0
LINE
  8
0
 10
-0.172333
 20
23.1358
 11
-0.257648
 21
23.1494
  0
LINE
  8
0
 10
-0.257648
 20
23.1494
 11
-0.341949
 21
23.1682
  0
LINE
  8
0
 10
-0.341949
 20
23.1682
 11
-0.424898
 21
23.1923
  0
LINE
  8
0
 10
-0.424898
 20
23.1923
 11
-0.506171
 21
23.2216
  0
LINE
  8
0
 10
-0.506171
 20
23.2216
 11
-0.585446
 21
23.2559
  0
LINE
  8
0
 10
-0.585446
 20
23.2559
 11
-0.662411
 21
23.2951
  0
LINE
  8
0
 10
-0.662411
 20
23.2951
 11
-0.736761
 21
23.339
  0
LINE
  8
0
 10
-0.736761
 20
23.339
 11
-0.808205
 21
23.3876
  0
LINE
  8
0
 10
-0.808205
 20
23.3876
 11
-0.876457
 21
23.4405
  0
LINE
  8
0
 10
-0.876457
 20
23.4405
 11
-0.941252
 21
23.4977
  0
LINE
  8
0
 10
-0.941252
 20
23.4977
 11
-1.00233
 21
23.5587
  0
LINE
  8
0
 10
-1.00233
 20
23.5587
 11
-1.05945
 21
23.6235
  0
LINE
  8
0
 10
-1.05945
 20
23.6235
 11
-1.1124
 21
23.6918
  0
LINE
  8
0
 10
-1.1124
 20
23.6918
 11
-1.16095
 21
23.7632
  0
LINE
  8
0
 10
-1.16095
 20
23.7632
 11
-1.20492
 21
23.8376
  0
LINE
  8
0
 10
-1.20492
 20
23.8376
 11
-1.24414
 21
23.9146
  0
LINE
  8
0
 10
-1.24414
 20
23.9146
 11
-1.27844
 21
23.9938
  0
LINE
  8
0
 10
-1.27844
 20
23.9938
 11
-1.3077
 21
24.0751
  0
LINE
  8
0
 10
-1.3077
 20
24.0751
 11
-1.3318
 21
24.1581
  0
LINE
  8
0
 10
-1.3318
 20
24.1581
 11
-1.35064
 21
24.2424
  0
LINE
  8
0
 10
-1.35064
 20
24.2424
 11
-1.36416
 21
24.3277
  0
LINE
  8
0
 10
-1.36416
 20
24.3277
 11
-1.37229
 21
24.4137
  0
LINE
  8
0
 10
-1.37229
 20
24.4137
 11
-1.375
 21
24.5
  0
LINE
  8
0
 10
2.5
 20
-20
 11
4.75
 21
-16.1029
  0
LINE
  8
0
 10
4.75
 20
-16.1029
 11
9.25
 21
-16.1029
  0
LINE
  8
0
 10
9.25
 20
-16.1029
 11
11.5
 21
-20
  0
LINE
  8
0
 10
11.5
 20
-20
 11
9.25
 21
-23.8971
  0
LINE
  8
0
 10
9.25
 20
-23.8971
 11
4.75
 21
-23.8971
  0
LINE
  8
0
 10
4.75
 20
-23.8971
 11
2.5
 21
-20
  0
LINE
  8
0
 10
2.5
 20
-10
 11
4.75
 21
-6.10289
  0
LINE
  8
0
 10
4.75
 20
-6.10289
 11
9.25
 21
-6.10289
  0
LINE
  8
0
 10
9.25
 20
-6.10289
 11
11.5
 21
-10
  0
LINE
  8
0
 10
11.5
 20
-10
 11
9.25
 21
-13.8971
  0
LINE
  8
0
 10
9.25
 20
-13.8971
 11
4.75
 21
-13.8971
  0
LINE
  8
0
 10
4.75
 20
-13.8971
 11
2.5
 21
-10
  0
LINE
  8
0
 10
2.5
 20
0
 11
4.75
 21
3.89711
  0
LINE
  8
0
 10
4.75
 20
3.89711
 11
9.25
 21
3.89711
  0
LINE
  8
0
 10
9.25
 20
3.89711
 11
11.5
 21
0
  0
LINE
  8
0
 10
11.5
 20
0
 11
9.25
 21
-3.89711
  0
LINE
  8
0
 10
9.25
 20
-3.89711
 11
4.75
 21
-3.89711
  0
LINE
  8
0
 10
4.75
 20
-3.89711
 11
2.5
 21
0
  0
LINE
  8
0
 10
2.5
 20
10
 11
4.75
 21
13.8971
  0
LINE
  8
0
 10
4.75
 20
13.8971
 11
9.25
 21
13.8971
  0
LINE
  8
0
 10
9.25
 20
13.8971
 11
11.5
 21
10
  0
LINE
  8
0
 10
11.5
 20
10
 11
9.25
 21
6.10289
  0
LINE
  8
0
 10
9.25
 20
6.10289
 11
4.75
 21
6.10289
  0
LINE
  8
0
 10
4.75
 20
6.10289
 11
2.5
 21
10
  0
LINE
  8
0
 10
2.5
 20
20
 11
4.75
 21
23.8971
  0
LINE
  8
0
 10
4.75
 20
23.8971
 11
9.25
 21
23.8971
  0
LINE
  8
0
 10
9.25
 20
23.8971
 11
11.5
 21
20
  0
LINE
  8
0
 10
11.5
 20
20
 11
9.25
 21
16.1029
  0
LINE
  8
0
 10
9.25
 20
16.1029
 11
4.75
 21
16.1029
  0
LINE
  8
0
 10
4.75
 20
16.1029
 11
2.5
 21
20
  0
LINE
  8
0
 10
11.5
 20
-25
 11
13.75
 21
-21.1029
  0
LINE
  8
0
 10
13.75
 20
-21.1029
 11
18.25
 21
-21.1029
  0
LINE
  8
0
 10
18.25
 20
-21.1029
 11
20.5
 21
-25
  0
LINE
  8
0
 10
20.5
 20
-25
 11
18.25
 21
-28.8971
  0
LINE
  8
0
 10
18.25
 20
-28.8971
 11
13.75
 21
-28.8971
  0
LINE
  8
0
 10
13.75
 20
-28.8971
 11
11.5
 21
-25
  0
LINE
  8
0
 10
11.5
 20
-15
 11
13.75
 21
-11.1029
  0
LINE
  8
0
 10
13.75
 20
-11.1029
 11
18.25
 21
-11.1029
  0
LINE
  8
0
 10
18.25
 20
-11.1029
 11
20.5
 21
-15
  0
LINE
  8
0
 10
20.5
 20
-15
 11
18.25
 21
-18.8971
  0
LINE
  8
0
 10
18.25
 20
-18.8971
 11
13.75
 21
-18.8971
  0
LINE
  8
0
 10
13.75
 20
-18.8971
 11
11.5
 21
-15
  0
LINE
  8
0
 10
11.5
 20
-5
 11
13.75
 21
-1.10289
  0
LINE
  8
0
 10
13.75
 20
-1.10289
 11
18.25
 21
-1.10289
  0
LINE
  8
0
 10
18.25
 20
-1.10289
 11
20.5
 21
-5
  0
LINE
  8
0
 10
20.5
 20
-5
 11
18.25
 21
-8.89711
  0
LINE
  8
0
 10
18.25
 20
-8.89711
 11
13.75
 21
-8.89711
  0
LINE
  8
0
 10
13.75
 20
-8.89711
 11
11.5
 21
-5
  0
LINE
  8
0
 10
11.5
 20
5
 11
13.75
 21
8.89711
  0
LINE
  8
0
 10
13.75
 20
8.89711
 11
18.25
 21
8.89711
  0
LINE
  8
0
 10
18.25
 20
8.89711
 11
20.5
 21
5
  0
LINE
  8
0
 10
20.5
 20
5
 11
18.25
 21
1.10289
  0
LINE
  8
0
 10
18.25
 20
1.10289
 11
13.75
 21
1.10289
  0
LINE
  8
0
 10
13.75
 20
1.10289
 11
11.5
 21
5
  0
LINE
  8
0
 10
11.5
 20
15
 11
13.75
 21
18.8971
  0
LINE
  8
0
 10
13.75
 20
18.8971
 11
18.25
 21
18.8971
  0
LINE
  8
0
 10
18.25
 20
18.8971
 11
20.5
 21
15
  0
LINE
  8
0
 10
20.5
 20
15
 11
18.25
 21
11.1029
  0
LINE
  8
0
 10
18.25
 20
11.1029
 11
13.75
 21
11.1029
  0
LINE
  8
0
 10
13.75
 20
11.1029
 11
11.5
 21
15
  0
LINE
  8
0
 10
11.5
 20
25
 11
13.75
 21
28.8971
  0
LINE
  8
0
 10
13.75
 20
28.8971
 11
18.25
 21
28.8971
  0
LINE
  8
0
 10
18.25
 20
28.8971
 11
20.5
 21
25
  0
LINE
  8
0
 10
20.5
 20
25
 11
18.25
 21
21.1029
  0
LINE
  8
0
 10
18.25
 20
21.1029
 11
13.75
 21
21.1029
  0
LINE
  8
0
 10
13.75
 20
21.1029
 11
11.5
 21
25
  0
LINE
  8
0
 10
20.5
 20
-30
 11
22.75
 21
-26.1029
  0
LINE
  8
0
 10
22.75
 20
-26.1029
 11
27.25
 21
-26.1029
  0
LINE
  8
0
 10
27.25
 20
-26.1029
 11
29.5
 21
-30
  0
LINE
  8
0
 10
29.5
 20
-30
 11
27.25
 21
-33.8971
  0
LINE
  8
0
 10
27.25
 20
-33.8971
 11
22.75
 21
-33.8971
  0
LINE
  8
0
 10
22.75
 20
-33.8971
 11
20.5
 21
-30
  0
LINE
  8
0
 10
20.5
 20
-20
 11
22.75
 21
-16.1029
  0
LINE
  8
0
 10
22.75
 20
-16.1029
 11
27.25
 21
-16.1029
  0
LINE
  8
0
 10
27.25
 20
-16.1029
 11
29.5
 21
-20
  0
LINE
  8
0
 10
29.5
 20
-20
 11
27.25
 21
-23.8971
  0
LINE
  8
0
 10
27.25
 20
-23.8971
 11
22.75
 21
-23.8971
  0
LINE
  8
0
 10
22.75
 20
-23.8971
 11
20.5
 21
-20
  0
LINE
  8
0
 10
20.5
 20
-10
 11
22.75
 21
-6.10289
  0
LINE
  8
0
 10
22.75
 20
-6.10289
 11
27.25
 21
-6.10289
  0
LINE
  8
0
 10
27.25
 20
-6.10289
 11
29.5
 21
-10
  0
LINE
  8
0
 10
29.5
 20
-10
 11
27.25
 21
-13.8971
  0
LINE
  8
0
 10
27.25
 20
-13.8971
 11
22.75
 21
-13.8971
  0
LINE
  8
0
 10
22.75
 20
-13.8971
 11
20.5
 21
-10
  0
LINE
  8
0
 10
20.5
 20
0
 11
22.75
 21
3.89711
  0
LINE
  8
0
 10
22.75
 20
3.89711
 11
27.25
 21
3.89711
  0
LINE
  8
0
 10
27.25
 20
3.89711
 11
29.5
 21
0
  0
LINE
  8
0
 10
29.5
 20
0
 11
27.25
 21
-3.89711
  0
LINE
  8
0
 10
27.25
 20
-3.89711
 11
22.75
 21
-3.89711
  0
LINE
  8
0
 10
22.75
 20
-3.89711
 11
20.5
 21
0
  0
LINE
  8
0
 10
20.5
 20
10
 11
22.75
 21
13.8971
  0
LINE
  8
0
 10
22.75
 20
13.8971
 11
27.25
 21
13.8971
  0
LINE
  8
0
 10
27.25
 20
13.8971
 11
29.5
 21
10
  0
LINE
  8
0
 10
29.5
 20
10
 11
27.25
 21
6.10289
  0
LINE
  8
0
 10
27.25
 20
6.10289
 11
22.75
 21
6.10289
  0
LINE
  8
0
 10
22.75
 20
6.10289
 11
20.5
 21
10
  0
LINE
  8
0
 10
20.5
 20
20
 11
22.75
 21
23.8971
  0
LINE
  8
0
 10
22.75
 20
23.8971
 11
27.25
 21
23.8971
  0
LINE
  8
0
 10
27.25
 20
23.8971
 11
29.5
 21
20
  0
LINE
  8
0
 10
29.5
 20
20
 11
27.25
 21
16.1029
  0
LINE
  8
0
 10
27.25
 20
16.1029
 11
22.75
 21
16.1029
  0
LINE
  8
0
 10
22.75
 20
16.1029
 11
20.5
 21
20
  0
LINE
  8
0
 10
20.5
 20
30
 11
22.75
 21
33.8971
  0
LINE
  8
0
 10
22.75
 20
33.8971
 11
27.25
 21
33.8971
  0
LINE
  8
0
 10
27.25
 20
33.8971
 11
29.5
 21
30
  0
LINE
  8
0
 10
29.5
 20
30
 11
27.25
 21
26.1029
  0
LINE
  8
0
 10
27.25
 20
26.1029
 11
22.75
 21
26.1029
  0
LINE
  8
0
 10
22.75
 20
26.1029
 11
20.5
 21
30
  0
LINE
  8
0
 10
29.5
 20
-25
 11
31.75
 21
-21.1029
  0
LINE
  8
0
 10
31.75
 20
-21.1029
 11
36.25
 21
-21.1029
  0
LINE
  8
0
 10
36.25
 20
-21.1029
 11
38.5
 21
-25
  0
LINE
  8
0
 10
38.5
 20
-25
 11
36.25
 21
-28.8971
  0
LINE
  8
0
 10
36.25
 20
-28.8971
 11
31.75
 21
-28.8971
  0
LINE
  8
0
 10
31.75
 20
-28.8971
 11
29.5
 21
-25
  0
LINE
  8
0
 10
29.5
 20
-15
 11
31.75
 21
-11.1029
  0
LINE
  8
0
 10
31.75
 20
-11.1029
 11
36.25
 21
-11.1029
  0
LINE
  8
0
 10
36.25
 20
-11.1029
 11
38.5
 21
-15
  0
LINE
  8
0
 10
38.5
 20
-15
 11
36.25
 21
-18.8971
  0
LINE
  8
0
 10
36.25
 20
-18.8971
 11
31.75
 21
-18.8971
  0
LINE
  8
0
 10
31.75
 20
-18.8971
 11
29.5
 21
-15
  0
LINE
  8
0
 10
29.5
 20
-5
 11
31.75
 21
-1.10289
  0
LINE
  8
0
 10
31.75
 20
-1.10289
 11
36.25
 21
-1.10289
  0
LINE
  8
0
 10
36.25
 20
-1.10289
 11
38.5
 21
-5
  0
LINE
  8
0
 10
38.5
 20
-5
 11
36.25
 21
-8.89711
  0
LINE
  8
0
 10
36.25
 20
-8.89711
 11
31.75
 21
-8.89711
  0
LINE
  8
0
 10
31.75
 20
-8.89711
 11
29.5
 21
-5
  0
LINE
  8
0
 10
29.5
 20
5
 11
31.75
 21
8.89711
  0
LINE
  8
0
 10
31.75
 20
8.89711
 11
36.25
 21
8.89711
  0
LINE
  8
0
 10
36.25
 20
8.89711
 11
38.5
 21
5
  0
LINE
  8
0
 10
38.5
 20
5
 11
36.25
 21
1.10289
  0
LINE
  8
0
 10
36.25
 20
1.10289
 11
31.75
 21
1.10289
  0
LINE
  8
0
 10
31.75
 20
1.10289
 11
29.5
 21
5
  0
LINE
  8
0
 10
29.5
 20
15
 11
31.75
 21
18.8971
  0
LINE
  8
0
 10
31.75
 20
18.8971
 11
36.25
 21
18.8971
  0
LINE
  8
0
 10
36.25
 20
18.8971
 11
38.5
 21
15
  0
LINE
  8
0
 10
38.5
 20
15
 11
36.25
 21
11.1029
  0
LINE
  8
0
 10
36.25
 20
11.1029
 11
31.75
 21
11.1029
  0
LINE
  8
0
 10
31.75
 20
11.1029
 11
29.5
 21
15
  0
LINE
  8
0
 10
29.5
 20
25
 11
31.75
 21
28.8971
  0
LINE
  8
0
 10
31.75
 20
28.8971
 11
36.25
 21
28.8971
  0
LINE
  8
0
 10
36.25
 20
28.8971
 11
38.5
 21
25
  0
LINE
  8
0
 10
38.5
 20
25
 11
36.25
 21
21.1029
  0
LINE
  8
0
 10
36.25
 20
21.1029
 11
31.75
 21
21.1029
  0
LINE
  8
0
 10
31.75
 20
21.1029
 11
29.5
 21
25
  0
LINE
  8
0
 10
38.5
 20
-30
 11
40.75
 21
-26.1029
  0
LINE
  8
0
 10
40.75
 20
-26.1029
 11
45.25
 21
-26.1029
  0
LINE
  8
0
 10
45.25
 20
-26.1029
 11
47.5
 21
-30
  0
LINE
  8
0
 10
47.5
 20
-30
 11
45.25
 21
-33.8971
  0
LINE
  8
0
 10
45.25
 20
-33.8971
 11
40.75
 21
-33.8971
  0
LINE
  8
0
 10
40.75
 20
-33.8971
 11
38.5
 21
-30
  0
LINE
  8
0
 10
38.5
 20
-20
 11
40.75
 21
-16.1029
  0
LINE
  8
0
 10
40.75
 20
-16.1029
 11
45.25
 21
-16.1029
  0
LINE
  8
0
 10
45.25
 20
-16.1029
 11
47.5
 21
-20
  0
LINE
  8
0
 10
47.5
 20
-20
 11
45.25
 21
-23.8971
  0
LINE
  8
0
 10
45.25
 20
-23.8971
 11
40.75
 21
-23.8971
  0
LINE
  8
0
 10
40.75
 20
-23.8971
 11
38.5
 21
-20
  0
LINE
  8
0
 10
38.5
 20
-10
 11
40.75
 21
-6.10289
  0
LINE
  8
0
 10
40.75
 20
-6.10289
 11
45.25
 21
-6.10289
  0
LINE
  8
0
 10
45.25
 20
-6.10289
 11
47.5
 21
-10
  0
LINE
  8
0
 10
47.5
 20
-10
 11
45.25
 21
-13.8971
  0
LINE
  8
0
 10
45.25
 20
-13.8971
 11
40.75
 21
-13.8971
  0
LINE
  8
0
 10
40.75
 20
-13.8971
 11
38.5
 21
-10
  0
LINE
  8
0
 10
38.5
 20
0
 11
40.75
 21
3.89711
  0
LINE
  8
0
 10
40.75
 20
3.89711
 11
45.25
 21
3.89711
  0
LINE
  8
0
 10
45.25
 20
3.89711
 11
47.5
 21
0
  0
LINE
  8
0
 10
47.5
 20
0
 11
45.25
 21
-3.89711
  0
LINE
  8
0
 10
45.25
 20
-3.89711
 11
40.75
 21
-3.89711
  0
LINE
  8
0
 10
40.75
 20
-3.89711
 11
38.5
 21
0
  0
LINE
  8
0
 10
38.5
 20
10
 11
40.75
 21
13.8971
  0
LINE
  8
0
 10
40.75
 20
13.8971
 11
45.25
 21
13.8971
  0
LINE
  8
0
 10
45.25
 20
13.8971
 11
47.5
 21
10
  0
LINE
  8
0
 10
47.5
 20
10
 11
45.25
 21
6.10289
  0
LINE
  8
0
 10
45.25
 20
6.10289
 11
40.75
 21
6.10289
  0
LINE
  8
0
 10
40.75
 20
6.10289
 11
38.5
 21
10
  0
LINE
  8
0
 10
38.5
 20
20
 11
40.75
 21
23.8971
  0
LINE
  8
0
 10
40.75
 20
23.8971
 11
45.25
 21
23.8971
  0
LINE
  8
0
 10
45.25
 20
23.8971
 11
47.5
 21
20
  0
LINE
  8
0
 10
47.5
 20
20
 11
45.25
 21
16.1029
  0
LINE
  8
0
 10
45.25
 20
16.1029
 11
40.75
 21
16.1029
  0
LINE
  8
0
 10
40.75
 20
16.1029
 11
38.5
 21
20
  0
LINE
  8
0
 10
38.5
 20
30
 11
40.75
 21
33.8971
  0
LINE
  8
0
 10
40.75
 20
33.8971
 11
45.25
 21
33.8971
  0
LINE
  8
0
 10
45.25
 20
33.8971
 11
47.5
 21
30
  0
LINE
  8
0
 10
47.5
 20
30
 11
45.25
 21
26.1029
  0
LINE
  8
0
 10
45.25
 20
26.1029
 11
40.75
 21
26.1029
  0
LINE
  8
0
 10
40.75
 20
26.1029
 11
38.5
 21
30
  0
LINE
  8
0
 10
47.5
 20
-15
 11
49.75
 21
-11.1029
  0
LINE
  8
0
 10
49.75
 20
-11.1029
 11
54.25
 21
-11.1029
  0
LINE
  8
0
 10
54.25
 20
-11.1029
 11
56.5
 21
-15
  0
LINE
  8
0
 10
56.5
 20
-15
 11
54.25
 21
-18.8971
  0
LINE
  8
0
 10
54.25
 20
-18.8971
 11
49.75
 21
-18.8971
  0
LINE
  8
0
 10
49.75
 20
-18.8971
 11
47.5
 21
-15
  0
LINE
  8
0
 10
47.5
 20
-5
 11
49.75
 21
-1.10289
  0
LINE
  8
0
 10
49.75
 20
-1.10289
 11
54.25
 21
-1.10289
  0
LINE
  8
0
 10
54.25
 20
-1.10289
 11
56.5
 21
-5
  0
LINE
  8
0
 10
56.5
 20
-5
 11
54.25
 21
-8.89711
  0
LINE
  8
0
 10
54.25
 20
-8.89711
 11
49.75
 21
-8.89711
  0
LINE
  8
0
 10
49.75
 20
-8.89711
 11
47.5
 21
-5
  0
LINE
  8
0
 10
47.5
 20
5
 11
49.75
 21
8.89711
  0
LINE
  8
0
 10
49.75
 20
8.89711
 11
54.25
 21
8.89711
  0
LINE
  8
0
 10
54.25
 20
8.89711
 11
56.5
 21
5
  0
LINE
  8
0
 10
56.5
 20
5
 11
54.25
 21
1.10289
  0
LINE
  8
0
 10
54.25
 20
1.10289
 11
49.75
 21
1.10289
  0
LINE
  8
0
 10
49.75
 20
1.10289
 11
47.5
 21
5
  0
LINE
  8
0
 10
47.5
 20
15
 11
49.75
 21
18.8971
  0
LINE
  8
0
 10
49.75
 20
18.8971
 11
54.25
 21
18.8971
  0
LINE
  8
0
 10
54.25
 20
18.8971
 11
56.5
 21
15
  0
LINE
  8
0
 10
56.5
 20
15
 11
54.25
 21
11.1029
  0
LINE
  8
0
 10
54.25
 20
11.1029
 11
49.75
 21
11.1029
  0
LINE
  8
0
 10
49.75
 20
11.1029
 11
47.5
 21
15
  0
LINE
  8
0
 10
56.5
 20
-10
 11
58.75
 21
-6.10289
  0
LINE
  8
0
 10
58.75
 20
-6.10289
 11
63.25
 21
-6.10289
  0
LINE
  8
0
 10
63.25
 20
-6.10289
 11
65.5
 21
-10
  0
LINE
  8
0
 10
65.5
 20
-10
 11
63.25
 21
-13.8971
  0
LINE
  8
0
 10
63.25
 20
-13.8971
 11
58.75
 21
-13.8971
  0
LINE
  8
0
 10
58.75
 20
-13.8971
 11
56.5
 21
-10
  0
LINE
  8
0
 10
56.5
 20
0
 11
58.75
 21
3.89711
  0
LINE
  8
0
 10
58.75
 20
3.89711
 11
63.25
 21
3.89711
  0
LINE
  8
0
 10
63.25
 20
3.89711
 11
65.5
 21
0
  0
LINE
  8
0
 10
65.5
 20
0
 11
63.25
 21
-3.89711
  0
LINE
  8
0
 10
63.25
 20
-3.89711
 11
58.75
 21
-3.89711
  0
LINE
  8
0
 10
58.75
 20
-3.89711
 11
56.5
 21
0
  0
LINE
  8
0
 10
56.5
 20
10
 11
58.75
 21
13.8971
  0
LINE
  8
0
 10
58.75
 20
13.8971
 11
63.25
 21
13.8971
  0
LINE
  8
0
 10
63.25
 20
13.8971
 11
65.5
 21
10
  0
LINE
  8
0
 10
65.5
 20
10
 11
63.25
 21
6.10289
  0
LINE
  8
0
 10
63.25
 20
6.10289
 11
58.75
 21
6.10289
  0
LINE
  8
0
 10
58.75
 20
6.10289
 11
56.5
 21
10
  0
LINE
  8
0
 10
56.625
 20
-24.5
 11
56.6277
 21
-24.4137
  0
LINE
  8
0
 10
56.6277
 20
-24.4137
 11
56.6358
 21
-24.3277
  0
LINE
  8
0
 10
56.6358
 20
-24.3277
 11
56.6494
 21
-24.2424
  0
LINE
  8
0
 10
56.6494
 20
-24.2424
 11
56.6682
 21
-24.1581
  0
LINE
  8
0
 10
56.6682
 20
-24.1581
 11
56.6923
 21
-24.0751
  0
LINE
  8
0
 10
56.6923
 20
-24.0751
 11
56.7216
 21
-23.9938
  0
LINE
  8
0
 10
56.7216
 20
-23.9938
 11
56.7559
 21
-23.9146
  0
LINE
  8
0
 10
56.7559
 20
-23.9146
 11
56.7951
 21
-23.8376
  0
LINE
  8
0
 10
56.7951
 20
-23.8376
 11
56.839
 21
-23.7632
  0
LINE
  8
0
 10
56.839
 20
-23.7632
 11
56.8876
 21
-23.6918
  0
LINE
  8
0
 10
56.8876
 20
-23.6918
 11
56.9405
 21
-23.6235
  0
LINE
  8
0
 10
56.9405
 20
-23.6235
 11
56.9977
 21
-23.5587
  0
LINE
  8
0
 10
56.9977
 20
-23.5587
 11
57.0587
 21
-23.4977
  0
LINE
  8
0
 10
57.0587
 20
-23.4977
 11
57.1235
 21
-23.4405
  0
LINE
  8
0
 10
57.1235
 20
-23.4405
 11
57.1918
 21
-23.3876
  0
LINE
  8
0
 10
57.1918
 20
-23.3876
 11
57.2632
 21
-23.339
  0
LINE
  8
0
 10
57.2632
 20
-23.339
 11
57.3376
 21
-23.2951
  0
LINE
  8
0
 10
57.3376
 20
-23.2951
 11
57.4146
 21
-23.2559
  0
LINE
  8
0
 10
57.4146
 20
-23.2559
 11
57.4938
 21
-23.2216
  0
LINE
  8
0
 10
57.4938
 20
-23.2216
 11
57.5751
 21
-23.1923
  0
LINE
  8
0
 10
57.5751
 20
-23.1923
 11
57.6581
 21
-23.1682
  0
LINE
  8
0
 10
57.6581
 20
-23.1682
 11
57.7424
 21
-23.1494
  0
LINE
  8
0
 10
57.7424
 20
-23.1494
 11
57.8277
 21
-23.1358
  0
LINE
  8
0
 10
57.8277
 20
-23.1358
 11
57.9137
 21
-23.1277
  0
LINE
  8
0
 10
57.9137
 20
-23.1277
 11
58
 21
-23.125
  0
LINE
  8
0
 10
58
 20
-23.125
 11
58.0863
 21
-23.1277
  0
LINE
  8
0
 10
58.0863
 20
-23.1277
 11
58.1723
 21
-23.1358
  0
LINE
  8
0
 10
58.1723
 20
-23.1358
 11
58.2576
 21
-23.1494
  0
LINE
  8
0
 10
58.2576
 20
-23.1494
 11
58.3419
 21
-23.1682
  0
LINE
  8
0
 10
58.3419
 20
-23.1682
 11
58.4249
 21
-23.1923
  0
LINE
  8
0
 10
58.4249
 20
-23.1923
 11
58.5062
 21
-23.2216
  0
LINE
  8
0
 10
58.5062
 20
-23.2216
 11
58.5854
 21
-23.2559
  0
LINE
  8
0
 10
58.5854
 20
-23.2559
 11
58.6624
 21
-23.2951
  0
LINE
  8
0
 10
58.6624
 20
-23.2951
 11
58.7368
 21
-23.339
  0
LINE
  8
0
 10
58.7368
 20
-23.339
 11
58.8082
 21
-23.3876
  0
LINE
  8
0
 10
58.8082
 20
-23.3876
 11
58.8765
 21
-23.4405
  0
LINE
  8
0
 10
58.8765
 20
-23.4405
 11
58.9413
 21
-23.4977
  0
LINE
  8
0
 10
58.9413
 20
-23.4977
 11
59.0023
 21
-23.5587
  0
LINE
  8
0
 10
59.0023
 20
-23.5587
 11
59.0595
 21
-23.6235
  0
LINE
  8
0
 10
59.0595
 20
-23.6235
 11
59.1124
 21
-23.6918
  0
LINE
  8
0
 10
59.1124
 20
-23.6918
 11
59.161
 21
-23.7632
  0
LINE
  8
0
 10
59.161
 20
-23.7632
 11
59.2049
 21
-23.8376
  0
LINE
  8
0
 10
59.2049
 20
-23.8376
 11
59.2441
 21
-23.9146
  0
LINE
  8
0
 10
59.2441
 20
-23.9146
 11
59.2784
 21
-23.9938
  0
LINE
  8
0
 10
59.2784
 20
-23.9938
 11
59.3077
 21
-24.0751
  0
LINE
  8
0
 10
59.3077
 20
-24.0751
 11
59.3318
 21
-24.1581
  0
LINE
  8
0
 10
59.3318
 20
-24.1581
 11
59.3506
 21
-24.2424
  0
LINE
  8
0
 10
59.3506
 20
-24.2424
 11
59.3642
 21
-24.3277
  0
LINE
  8
0
 10
59.3642
 20
-24.3277
 11
59.3723
 21
-24.4137
  0
LINE
  8
0
 10
59.3723
 20
-24.4137
 11
59.375
 21
-24.5
  0
LINE
  8
0
 10
59.375
 20
-24.5
 11
59.3723
 21
-24.5863
  0
LINE
  8
0
 10
59.3723
 20
-24.5863
 11
59.3642
 21
-24.6723
  0
LINE
  8
0
 10
59.3642
 20
-24.6723
 11
59.3506
 21
-24.7576
  0
LINE
  8
0
 10
59.3506
 20
-24.7576
 11
59.3318
 21
-24.8419
  0
LINE
  8
0
 10
59.3318
 20
-24.8419
 11
59.3077
 21
-24.9249
  0
LINE
  8
0
 10
59.3077
 20
-24.9249
 11
59.2784
 21
-25.0062
  0
LINE
  8
0
 10
59.2784
 20
-25.0062
 11
59.2441
 21
-25.0854
  0
LINE
  8
0
 10
59.2441
 20
-25.0854
 11
59.2049
 21
-25.1624
  0
LINE
  8
0
 10
59.2049
 20
-25.1624
 11
59.161
 21
-25.2368
  0
LINE
  8
0
 10
59.161
 20
-25.2368
 11
59.1124
 21
-25.3082
  0
LINE
  8
0
 10
59.1124
 20
-25.3082
 11
59.0595
 21
-25.3765
  0
LINE
  8
0
 10
59.0595
 20
-25.3765
 11
59.0023
 21
-25.4413
  0
LINE
  8
0
 10
59.0023
 20
-25.4413
 11
58.9413
 21
-25.5023
  0
LINE
  8
0
 10
58.9413
 20
-25.5023
 11
58.8765
 21
-25.5595
  0
LINE
  8
0
 10
58.8765
 20
-25.5595
 11
58.8082
 21
-25.6124
  0
LINE
  8
0
 10
58.8082
 20
-25.6124
 11
58.7368
 21
-25.661
  0
LINE
  8
0
 10
58.7368
 20
-25.661
 11
58.6624
 21
-25.7049
  0
LINE
  8
0
 10
58.6624
 20
-25.7049
 11
58.5854
 21
-25.7441
  0
LINE
  8
0
 10
58.5854
 20
-25.7441
 11
58.5062
 21
-25.7784
  0
LINE
  8
0
 10
58.5062
 20
-25.7784
 11
58.4249
 21
-25.8077
  0
LINE
  8
0
 10
58.4249
 20
-25.8077
 11
58.3419
 21
-25.8318
  0
LINE
  8
0
 10
58.3419
 20
-25.8318
 11
58.2576
 21
-25.8506
  0
LINE
  8
0
 10
58.2576
 20
-25.8506
 11
58.1723
 21
-25.8642
  0
LINE
  8
0
 10
58.1723
 20
-25.8642
 11
58.0863
 21
-25.8723
  0
LINE
  8
0
 10
58.0863
 20
-25.8723
 11
58
 21
-25.875
  0
LINE
  8
0
 10
58
 20
-25.875
 11
57.9137
 21
-25.8723
  0
LINE
  8
0
 10
57.9137
 20
-25.8723
 11
57.8277
 21
-25.8642
  0
LINE
  8
0
 10
57.8277
 20
-25.8642
 11
57.7424
 21
-25.8506
  0
LINE
  8
0
 10
57.7424
 20
-25.8506
 11
57.6581
 21
-25.8318
  0
LINE
  8
0
 10
57.6581
 20
-25.8318
 11
57.5751
 21
-25.8077
  0
LINE
  8
0
 10
57.5751
 20
-25.8077
 11
57.4938
 21
-25.7784
  0
LINE
  8
0
 10
57.4938
 20
-25.7784
 11
57.4146
 21
-25.7441
  0
LINE
  8
0
 10
57.4146
 20
-25.7441
 11
57.3376
 21
-25.7049
  0
LINE
  8
0
 10
57.3376
 20
-25.7049
 11
57.2632
 21
-25.661
  0
LINE
  8
0
 10
57.2632
 20
-25.661
 11
57.1918
 21
-25.6124
  0
LINE
  8
0
 10
57.1918
 20
-25.6124
 11
57.1235
 21
-25.5595
  0
LINE
  8
0
 10
57.1235
 20
-25.5595
 11
57.0587
 21
-25.5023
  0
LINE
  8
0
 10
57.0587
 20
-25.5023
 11
56.9977
 21
-25.4413
  0
LINE
  8
0
 10
56.9977
 20
-25.4413
 11
56.9405
 21
-25.3765
  0
LINE
  8
0
 10
56.9405
 20
-25.3765
 11
56.8876
 21
-25.3082
  0
LINE
  8
0
 10
56.8876
 20
-25.3082
 11
56.839
 21
-25.2368
  0
LINE
  8
0
 10
56.839
 20
-25.2368
 11
56.7951
 21
-25.1624
  0
LINE
  8
0
 10
56.7951
 20
-25.1624
 11
56.7559
 21
-25.0854
  0
LINE
  8
0
 10
56.7559
 20
-25.0854
 11
56.7216
 21
-25.0062
  0
LINE
  8
0
 10
56.7216
 20
-25.0062
 11
56.6923
 21
-24.9249
  0
LINE
  8
0
 10
56.6923
 20
-24.9249
 11
56.6682
 21
-24.8419
  0
LINE
  8
0
 10
56.6682
 20
-24.8419
 11
56.6494
 21
-24.7576
  0
LINE
  8
0
 10
56.6494
 20
-24.7576
 11
56.6358
 21
-24.6723
  0
LINE
  8
0
 10
56.6358
 20
-24.6723
 11
56.6277
 21
-24.5863
  0
LINE
  8
0
 10
56.6277
 20
-24.5863
 11
56.625
 21
-24.5
  0
LINE
  8
0
 10
56.625
 20
24.5
 11
56.6277
 21
24.5863
  0
LINE
  8
0
 10
56.6277
 20
24.5863
 11
56.6358
 21
24.6723
  0
LINE
  8
0
 10
56.6358
 20
24.6723
 11
56.6494
 21
24.7576
  0
LINE
  8
0
 10
56.6494
 20
24.7576
 11
56.6682
 21
24.8419
  0
LINE
  8
0
 10
56.6682
 20
24.8419
 11
56.6923
 21
24.9249
  0
LINE
  8
0
 10
56.6923
 20
24.9249
 11
56.7216
 21
25.0062
  0
LINE
  8
0
 10
56.7216
 20
25.0062
 11
56.7559
 21
25.0854
  0
LINE
  8
0
 10
56.7559
 20
25.0854
 11
56.7951
 21
25.1624
  0
LINE
  8
0
 10
56.7951
 20
25.1624
 11
56.839
 21
25.2368
  0
LINE
  8
0
 10
56.839
 20
25.2368
 11
56.8876
 21
25.3082
  0
LINE
  8
0
 10
56.8876
 20
25.3082
 11
56.9405
 21
25.3765
  0
LINE
  8
0
 10
56.9405
 20
25.3765
 11
56.9977
 21
25.4413
  0
LINE
  8
0
 10
56.9977
 20
25.4413
 11
57.0587
 21
25.5023
  0
LINE
  8
0
 10
57.0587
 20
25.5023
 11
57.1235
 21
25.5595
  0
LINE
  8
0
 10
57.1235
 20
25.5595
 11
57.1918
 21
25.6124
  0
LINE
  8
0
 10
57.1918
 20
25.6124
 11
57.2632
 21
25.661
  0
LINE
  8
0
 10
57.2632
 20
25.661
 11
57.3376
 21
25.7049
  0
LINE
  8
0
 10
57.3376
 20
25.7049
 11
57.4146
 21
25.7441
  0
LINE
  8
0
 10
57.4146
 20
25.7441
 11
57.4938
 21
25.7784
  0
LINE
  8
0
 10
57.4938
 20
25.7784
 11
57.5751
 21
25.8077
  0
LINE
  8
0
 10
57.5751
 20
25.8077
 11
57.6581
 21
25.8318
  0
LINE
  8
0
 10
57.6581
 20
25.8318
 11
57.7424
 21
25.8506
  0
LINE
  8
0
 10
57.7424
 20
25.8506
 11
57.8277
 21
25.8642
  0
LINE
  8
0
 10
57.8277
 20
25.8642
 11
57.9137
 21
25.8723
  0
LINE
  8
0
 10
57.9137
 20
25.8723
 11
58
 21
25.875
  0
LINE
  8
0
 10
58
 20
25.875
 11
58.0863
 21
25.8723
  0
LINE
  8
0
 10
58.0863
 20
25.8723
 11
58.1723
 21
25.8642
  0
LINE
  8
0
 10
58.1723
 20
25.8642
 11
58.2576
 21
25.8506
  0
LINE
  8
0
 10
58.2576
 20
25.8506
 11
58.3419
 21
25.8318
  0
LINE
  8
0
 10
58.3419
 20
25.8318
 11
58.4249
 21
25.8077
  0
LINE
  8
0
 10
58.4249
 20
25.8077
 11
58.5062
 21
25.7784
  0
LINE
  8
0
 10
58.5062
 20
25.7784
 11
58.5854
 21
25.7441
  0
LINE
  8
0
 10
58.5854
 20
25.7441
 11
58.6624
 21
25.7049
  0
LINE
  8
0
 10
58.6624
 20
25.7049
 11
58.7368
 21
25.661
  0
LINE
  8
0
 10
58.7368
 20
25.661
 11
58.8082
 21
25.6124
  0
LINE
  8
0
 10
58.8082
 20
25.6124
 11
58.8765
 21
25.5595
  0
LINE
  8
0
 10
58.8765
 20
25.5595
 11
58.9413
 21
25.5023
  0
LINE
  8
0
 10
58.9413
 20
25.5023
 11
59.0023
 21
25.4413
  0
LINE
  8
0
 10
59.0023
 20
25.4413
 11
59.0595
 21
25.3765
  0
LINE
  8
0
 10
59.0595
 20
25.3765
 11
59.1124
 21
25.3082
  0
LINE
  8
0
 10
59.1124
 20
25.3082
 11
59.161
 21
25.2368
  0
LINE
  8
0
 10
59.161
 20
25.2368
 11
59.2049
 21
25.1624
  0
LINE
  8
0
 10
59.2049
 20
25.1624
 11
59.2441
 21
25.0854
  0
LINE
  8
0
 10
59.2441
 20
25.0854
 11
59.2784
 21
25.0062
  0
LINE
  8
0
 10
59.2784
 20
25.0062
 11
59.3077
 21
24.9249
  0
LINE
  8
0
 10
59.3077
 20
24.9249
 11
59.3318
 21
24.8419
  0
LINE
  8
0
 10
59.3318
 20
24.8419
 11
59.3506
 21
24.7576
  0
LINE
  8
0
 10
59.3506
 20
24.7576
 11
59.3642
 21
24.6723
  0
LINE
  8
0
 10
59.3642
 20
24.6723
 11
59.3723
 21
24.5863
  0
LINE
  8
0
 10
59.3723
 20
24.5863
 11
59.375
 21
24.5
  0
LINE
  8
0
 10
59.375
 20
24.5
 11
59.3723
 21
24.4137
  0
LINE
  8
0
 10
59.3723
 20
24.4137
 11
59.3642
 21
24.3277
  0
LINE
  8
0
 10
59.3642
 20
24.3277
 11
59.3506
 21
24.2424
  0
LINE
  8
0
 10
59.3506
 20
24.2424
 11
59.3318
 21
24.1581
  0
LINE
  8
0
 10
59.3318
 20
24.1581
 11
59.3077
 21
24.0751
  0
LINE
  8
0
 10
59.3077
 20
24.0751
 11
59.2784
 21
23.9938
  0
LINE
  8
0
 10
59.2784
 20
23.9938
 11
59.2441
 21
23.9146
  0
LINE
  8
0
 10
59.2441
 20
23.9146
 11
59.2049
 21
23.8376
  0
LINE
  8
0
 10
59.2049
 20
23.8376
 11
59.161
 21
23.7632
  0
LINE
  8
0
 10
59.161
 20
23.7632
 11
59.1124
 21
23.6918
  0
LINE
  8
0
 10
59.1124
 20
23.6918
 11
59.0595
 21
23.6235
  0
LINE
  8
0
 10
59.0595
 20
23.6235
 11
59.0023
 21
23.5587
  0
LINE
  8
0
 10
59.0023
 20
23.5587
 11
58.9413
 21
23.4977
  0
LINE
  8
0
 10
58.9413
 20
23.4977
 11
58.8765
 21
23.4405
  0
LINE
  8
0
 10
58.8765
 20
23.4405
 11
58.8082
 21
23.3876
  0
LINE
  8
0
 10
58.8082
 20
23.3876
 11
58.7368
 21
23.339
  0
LINE
  8
0
 10
58.7368
 20
23.339
 11
58.6624
 21
23.2951
  0
LINE
  8
0
 10
58.6624
 20
23.2951
 11
58.5854
 21
23.2559
  0
LINE
  8
0
 10
58.5854
 20
23.2559
 11
58.5062
 21
23.2216
  0
LINE
  8
0
 10
58.5062
 20
23.2216
 11
58.4249
 21
23.1923
  0
LINE
  8
0
 10
58.4249
 20
23.1923
 11
58.3419
 21
23.1682
  0
LINE
  8
0
 10
58.3419
 20
23.1682
 11
58.2576
 21
23.1494
  0
LINE
  8
0
 10
58.2576
 20
23.1494
 11
58.1723
 21
23.1358
  0
LINE
  8
0
 10
58.1723
 20
23.1358
 11
58.0863
 21
23.1277
  0
LINE
  8
0
 10
58.0863
 20
23.1277
 11
58
 21
23.125
  0
LINE
  8
0
 10
58
 20
23.125
 11
57.9137
 21
23.1277
  0
LINE
  8
0
 10
57.9137
 20
23.1277
 11
57.8277
 21
23.1358
  0
LINE
  8
0
 10
57.8277
 20
23.1358
 11
57.7424
 21
23.1494
  0
LINE
  8
0
 10
57.7424
 20
23.1494
 11
57.6581
 21
23.1682
  0
LINE
  8
0
 10
57.6581
 20
23.1682
 11
57.5751
 21
23.1923
  0
LINE
  8
0
 10
57.5751
 20
23.1923
 11
57.4938
 21
23.2216
  0
LINE
  8
0
 10
57.4938
 20
23.2216
 11
57.4146
 21
23.2559
  0
LINE
  8
0
 10
57.4146
 20
23.2559
 11
57.3376
 21
23.2951
  0
LINE
  8
0
 10
57.3376
 20
23.2951
 11
57.2632
 21
23.339
  0
LINE
  8
0
 10
57.2632
 20
23.339
 11
57.1918
 21
23.3876
  0
LINE
  8
0
 10
57.1918
 20
23.3876
 11
57.1235
 21
23.4405
  0
LINE
  8
0
 10
57.1235
 20
23.4405
 11
57.0587
 21
23.4977
  0
LINE
  8
0
 10
57.0587
 20
23.4977
 11
56.9977
 21
23.5587
  0
LINE
  8
0
 10
56.9977
 20
23.5587
 11
56.9405
 21
23.6235
  0
LINE
  8
0
 10
56.9405
 20
23.6235
 11
56.8876
 21
23.6918
  0
LINE
  8
0
 10
56.8876
 20
23.6918
 11
56.839
 21
23.7632
  0
LINE
  8
0
 10
56.839
 20
23.7632
 11
56.7951
 21
23.8376
  0
LINE
  8
0
 10
56.7951
 20
23.8376
 11
56.7559
 21
23.9146
  0
LINE
  8
0
 10
56.7559
 20
23.9146
 11
56.7216
 21
23.9938
  0
LINE
  8
0
 10
56.7216
 20
23.9938
 11
56.6923
 21
24.0751
  0
LINE
  8
0
 10
56.6923
 20
24.0751
 11
56.6682
 21
24.1581
  0
LINE
  8
0
 10
56.6682
 20
24.1581
 11
56.6494
 21
24.2424
  0
LINE
  8
0
 10
56.6494
 20
24.2424
 11
56.6358
 21
24.3277
  0
LINE
  8
0
 10
56.6358
 20
24.3277
 11
56.6277
 21
24.4137
  0
LINE
  8
0
 10
56.6277
 20
24.4137
 11
56.625
 21
24.5
  0
LINE
  8
0
 10
65.5
 20
-25
 11
67.75
 21
-21.1029
  0
LINE
  8
0
 10
67.75
 20
-21.1029
 11
72.25
 21
-21.1029
  0
LINE
  8
0
 10
72.25
 20
-21.1029
 11
74.5
 21
-25
  0
LINE
  8
0
 10
74.5
 20
-25
 11
72.25
 21
-28.8971
  0
LINE
  8
0
 10
72.25
 20
-28.8971
 11
67.75
 21
-28.8971
  0
LINE
  8
0
 10
67.75
 20
-28.8971
 11
65.5
 21
-25
  0
LINE
  8
0
 10
65.5
 20
-15
 11
67.75
 21
-11.1029
  0
LINE
  8
0
 10
67.75
 20
-11.1029
 11
72.25
 21
-11.1029
  0
LINE
  8
0
 10
72.25
 20
-11.1029
 11
74.5
 21
-15
  0
LINE
  8
0
 10
74.5
 20
-15
 11
72.25
 21
-18.8971
  0
LINE
  8
0
 10
72.25
 20
-18.8971
 11
67.75
 21
-18.8971
  0
LINE
  8
0
 10
67.75
 20
-18.8971
 11
65.5
 21
-15
  0
LINE
  8
0
 10
65.5
 20
-5
 11
67.75
 21
-1.10289
  0
LINE
  8
0
 10
67.75
 20
-1.10289
 11
72.25
 21
-1.10289
  0
LINE
  8
0
 10
72.25
 20
-1.10289
 11
74.5
 21
-5
  0
LINE
  8
0
 10
74.5
 20
-5
 11
72.25
 21
-8.89711
  0
LINE
  8
0
 10
72.25
 20
-8.89711
 11
67.75
 21
-8.89711
  0
LINE
  8
0
 10
67.75
 20
-8.89711
 11
65.5
 21
-5
  0
LINE
  8
0
 10
65.5
 20
5
 11
67.75
 21
8.89711
  0
LINE
  8
0
 10
67.75
 20
8.89711
 11
72.25
 21
8.89711
  0
LINE
  8
0
 10
72.25
 20
8.89711
 11
74.5
 21
5
  0
LINE
  8
0
 10
74.5
 20
5
 11
72.25
 21
1.10289
  0
LINE
  8
0
 10
72.25
 20
1.10289
 11
67.75
 21
1.10289
  0
LINE
  8
0
 10
67.75
 20
1.10289
 11
65.5
 21
5
  0
LINE
  8
0
 10
65.5
 20
15
 11
67.75
 21
18.8971
  0
LINE
  8
0
 10
67.75
 20
18.8971
 11
72.25
 21
18.8971
  0
LINE
  8
0
 10
72.25
 20
18.8971
 11
74.5
 21
15
  0
LINE
  8
0
 10
74.5
 20
15
 11
72.25
 21
11.1029
  0
LINE
  8
0
 10
72.25
 20
11.1029
 11
67.75
 21
11.1029
  0
LINE
  8
0
 10
67.75
 20
11.1029
 11
65.5
 21
15
  0
LINE
  8
0
 10
65.5
 20
25
 11
67.75
 21
28.8971
  0
LINE
  8
0
 10
67.75
 20
28.8971
 11
72.25
 21
28.8971
  0
LINE
  8
0
 10
72.25
 20
28.8971
 11
74.5
 21
25
  0
LINE
  8
0
 10
74.5
 20
25
 11
72.25
 21
21.1029
  0
LINE
  8
0
 10
72.25
 20
21.1029
 11
67.75
 21
21.1029
  0
LINE
  8
0
 10
67.75
 20
21.1029
 11
65.5
 21
25
  0
LINE
  8
0
 10
75.05
 20
-30.86
 11
75.0531
 21
-30.7627
  0
LINE
  8
0
 10
75.0531
 20
-30.7627
 11
75.0622
 21
-30.6657
  0
LINE
  8
0
 10
75.0622
 20
-30.6657
 11
75.0775
 21
-30.5696
  0
LINE
  8
0
 10
75.0775
 20
-30.5696
 11
75.0987
 21
-30.4745
  0
LINE
  8
0
 10
75.0987
 20
-30.4745
 11
75.1259
 21
-30.381
  0
LINE
  8
0
 10
75.1259
 20
-30.381
 11
75.1588
 21
-30.2894
  0
LINE
  8
0
 10
75.1588
 20
-30.2894
 11
75.1975
 21
-30.2
  0
LINE
  8
0
 10
75.1975
 20
-30.2
 11
75.2417
 21
-30.1133
  0
LINE
  8
0
 10
75.2417
 20
-30.1133
 11
75.2913
 21
-30.0295
  0
LINE
  8
0
 10
75.2913
 20
-30.0295
 11
75.346
 21
-29.9489
  0
LINE
  8
0
 10
75.346
 20
-29.9489
 11
75.4057
 21
-29.872
  0
LINE
  8
0
 10
75.4057
 20
-29.872
 11
75.4701
 21
-29.799
  0
LINE
  8
0
 10
75.4701
 20
-29.799
 11
75.539
 21
-29.7301
  0
LINE
  8
0
 10
75.539
 20
-29.7301
 11
75.612
 21
-29.6657
  0
LINE
  8
0
 10
75.612
 20
-29.6657
 11
75.6889
 21
-29.606
  0
LINE
  8
0
 10
75.6889
 20
-29.606
 11
75.7695
 21
-29.5513
  0
LINE
  8
0
 10
75.7695
 20
-29.5513
 11
75.8533
 21
-29.5017
  0
LINE
  8
0
 10
75.8533
 20
-29.5017
 11
75.94
 21
-29.4575
  0
LINE
  8
0
 10
75.94
 20
-29.4575
 11
76.0294
 21
-29.4188
  0
LINE
  8
0
 10
76.0294
 20
-29.4188
 11
76.121
 21
-29.3859
  0
LINE
  8
0
 10
76.121
 20
-29.3859
 11
76.2145
 21
-29.3587
  0
LINE
  8
0
 10
76.2145
 20
-29.3587
 11
76.3096
 21
-29.3375
  0
LINE
  8
0
 10
76.3096
 20
-29.3375
 11
76.4057
 21
-29.3222
  0
LINE
  8
0
 10
76.4057
 20
-29.3222
 11
76.5027
 21
-29.3131
  0
LINE
  8
0
 10
76.5027
 20
-29.3131
 11
76.6
 21
-29.31
  0
LINE
  8
0
 10
76.6
 20
-29.31
 11
76.6973
 21
-29.3131
  0
LINE
  8
0
 10
76.6973
 20
-29.3131
 11
76.7943
 21
-29.3222
  0
LINE
  8
0
 10
76.7943
 20
-29.3222
 11
76.8904
 21
-29.3375
  0
LINE
  8
0
 10
76.8904
 20
-29.3375
 11
76.9855
 21
-29.3587
  0
LINE
  8
0
 10
76.9855
 20
-29.3587
 11
77.079
 21
-29.3859
  0
LINE
  8
0
 10
77.079
 20
-29.3859
 11
77.1706
 21
-29.4188
  0
LINE
  8
0
 10
77.1706
 20
-29.4188
 11
77.26
 21
-29.4575
  0
LINE
  8
0
 10
77.26
 20
-29.4575
 11
77.3467
 21
-29.5017
  0
LINE
  8
0
 10
77.3467
 20
-29.5017
 11
77.4305
 21
-29.5513
  0
LINE
  8
0
 10
77.4305
 20
-29.5513
 11
77.5111
 21
-29.606
  0
LINE
  8
0
 10
77.5111
 20
-29.606
 11
77.588
 21
-29.6657
  0
LINE
  8
0
 10
77.588
 20
-29.6657
 11
77.661
 21
-29.7301
  0
LINE
  8
0
 10
77.661
 20
-29.7301
 11
77.7299
 21
-29.799
  0
LINE
  8
0
 10
77.7299
 20
-29.799
 11
77.7943
 21
-29.872
  0
LINE
  8
0
 10
77.7943
 20
-29.872
 11
77.854
 21
-29.9489
  0
LINE
  8
0
 10
77.854
 20
-29.9489
 11
77.9087
 21
-30.0295
  0
LINE
  8
0
 10
77.9087
 20
-30.0295
 11
77.9583
 21
-30.1133
  0
LINE
  8
0
 10
77.9583
 20
-30.1133
 11
78.0025
 21
-30.2
  0
LINE
  8
0
 10
78.0025
 20
-30.2
 11
78.0412
 21
-30.2894
  0
LINE
  8
0
 10
78.0412
 20
-30.2894
 11
78.0741
 21
-30.381
  0
LINE
  8
0
 10
78.0741
 20
-30.381
 11
78.1013
 21
-30.4745
  0
LINE
  8
0
 10
78.1013
 20
-30.4745
 11
78.1225
 21
-30.5696
  0
LINE
  8
0
 10
78.1225
 20
-30.5696
 11
78.1378
 21
-30.6657
  0
LINE
  8
0
 10
78.1378
 20
-30.6657
 11
78.1469
 21
-30.7627
  0
LINE
  8
0
 10
78.1469
 20
-30.7627
 11
78.15
 21
-30.86
  0
LINE
  8
0
 10
78.15
 20
-30.86
 11
78.1469
 21
-30.9573
  0
LINE
  8
0
 10
78.1469
 20
-30.9573
 11
78.1378
 21
-31.0543
  0
LINE
  8
0
 10
78.1378
 20
-31.0543
 11
78.1225
 21
-31.1504
  0
LINE
  8
0
 10
78.1225
 20
-31.1504
 11
78.1013
 21
-31.2455
  0
LINE
  8
0
 10
78.1013
 20
-31.2455
 11
78.0741
 21
-31.339
  0
LINE
  8
0
 10
78.0741
 20
-31.339
 11
78.0412
 21
-31.4306
  0
LINE
  8
0
 10
78.0412
 20
-31.4306
 11
78.0025
 21
-31.52
  0
LINE
  8
0
 10
78.0025
 20
-31.52
 11
77.9583
 21
-31.6067
  0
LINE
  8
0
 10
77.9583
 20
-31.6067
 11
77.9087
 21
-31.6905
  0
LINE
  8
0
 10
77.9087
 20
-31.6905
 11
77.854
 21
-31.7711
  0
LINE
  8
0
 10
77.854
 20
-31.7711
 11
77.7943
 21
-31.848
  0
LINE
  8
0
 10
77.7943
 20
-31.848
 11
77.7299
 21
-31.921
  0
LINE
  8
0
 10
77.7299
 20
-31.921
 11
77.661
 21
-31.9899
  0
LINE
  8
0
 10
77.661
 20
-31.9899
 11
77.588
 21
-32.0543
  0
LINE
  8
0
 10
77.588
 20
-32.0543
 11
77.5111
 21
-32.114
  0
LINE
  8
0
 10
77.5111
 20
-32.114
 11
77.4305
 21
-32.1687
  0
LINE
  8
0
 10
77.4305
 20
-32.1687
 11
77.3467
 21
-32.2183
  0
LINE
  8
0
 10
77.3467
 20
-32.2183
 11
77.26
 21
-32.2625
  0
LINE
  8
0
 10
77.26
 20
-32.2625
 11
77.1706
 21
-32.3012
  0
LINE
  8
0
 10
77.1706
 20
-32.3012
 11
77.079
 21
-32.3341
  0
LINE
  8
0
 10
77.079
 20
-32.3341
 11
76.9855
 21
-32.3613
  0
LINE
  8
0
 10
76.9855
 20
-32.3613
 11
76.8904
 21
-32.3825
  0
LINE
  8
0
 10
76.8904
 20
-32.3825
 11
76.7943
 21
-32.3978
  0
LINE
  8
0
 10
76.7943
 20
-32.3978
 11
76.6973
 21
-32.4069
  0
LINE
  8
0
 10
76.6973
 20
-32.4069
 11
76.6
 21
-32.41
  0
LINE
  8
0
 10
76.6
 20
-32.41
 11
76.5027
 21
-32.4069
  0
LINE
  8
0
 10
76.5027
 20
-32.4069
 11
76.4057
 21
-32.3978
  0
LINE
  8
0
 10
76.4057
 20
-32.3978
 11
76.3096
 21
-32.3825
  0
LINE
  8
0
 10
76.3096
 20
-32.3825
 11
76.2145
 21
-32.3613
  0
LINE
  8
0
 10
76.2145
 20
-32.3613
 11
76.121
 21
-32.3341
  0
LINE
  8
0
 10
76.121
 20
-32.3341
 11
76.0294
 21
-32.3012
  0
LINE
  8
0
 10
76.0294
 20
-32.3012
 11
75.94
 21
-32.2625
  0
LINE
  8
0
 10
75.94
 20
-32.2625
 11
75.8533
 21
-32.2183
  0
LINE
  8
0
 10
75.8533
 20
-32.2183
 11
75.7695
 21
-32.1687
  0
LINE
  8
0
 10
75.7695
 20
-32.1687
 11
75.6889
 21
-32.114
  0
LINE
  8
0
 10
75.6889
 20
-32.114
 11
75.612
 21
-32.0543
  0
LINE
  8
0
 10
75.612
 20
-32.0543
 11
75.539
 21
-31.9899
  0
LINE
  8
0
 10
75.539
 20
-31.9899
 11
75.4701
 21
-31.921
  0
LINE
  8
0
 10
75.4701
 20
-31.921
 11
75.4057
 21
-31.848
  0
LINE
  8
0
 10
75.4057
 20
-31.848
 11
75.346
 21
-31.7711
  0
LINE
  8
0
 10
75.346
 20
-31.7711
 11
75.2913
 21
-31.6905
  0
LINE
  8
0
 10
75.2913
 20
-31.6905
 11
75.2417
 21
-31.6067
  0
LINE
  8
0
 10
75.2417
 20
-31.6067
 11
75.1975
 21
-31.52
  0
LINE
  8
0
 10
75.1975
 20
-31.52
 11
75.1588
 21
-31.4306
  0
LINE
  8
0
 10
75.1588
 20
-31.4306
 11
75.1259
 21
-31.339
  0
LINE
  8
0
 10
75.1259
 20
-31.339
 11
75.0987
 21
-31.2455
  0
LINE
  8
0
 10
75.0987
 20
-31.2455
 11
75.0775
 21
-31.1504
  0
LINE
  8
0
 10
75.0775
 20
-31.1504
 11
75.0622
 21
-31.0543
  0
LINE
  8
0
 10
75.0622
 20
-31.0543
 11
75.0531
 21
-30.9573
  0
LINE
  8
0
 10
75.0531
 20
-30.9573
 11
75.05
 21
-30.86
  0
LINE
  8
0
 10
75.05
 20
30.86
 11
75.0531
 21
30.9573
  0
LINE
  8
0
 10
75.0531
 20
30.9573
 11
75.0622
 21
31.0543
  0
LINE
  8
0
 10
75.0622
 20
31.0543
 11
75.0775
 21
31.1504
  0
LINE
  8
0
 10
75.0775
 20
31.1504
 11
75.0987
 21
31.2455
  0
LINE
  8
0
 10
75.0987
 20
31.2455
 11
75.1259
 21
31.339
  0
LINE
  8
0
 10
75.1259
 20
31.339
 11
75.1588
 21
31.4306
  0
LINE
  8
0
 10
75.1588
 20
31.4306
 11
75.1975
 21
31.52
  0
LINE
  8
0
 10
75.1975
 20
31.52
 11
75.2417
 21
31.6067
  0
LINE
  8
0
 10
75.2417
 20
31.6067
 11
75.2913
 21
31.6905
  0
LINE
  8
0
 10
75.2913
 20
31.6905
 11
75.346
 21
31.7711
  0
LINE
  8
0
 10
75.346
 20
31.7711
 11
75.4057
 21
31.848
  0
LINE
  8
0
 10
75.4057
 20
31.848
 11
75.4701
 21
31.921
  0
LINE
  8
0
 10
75.4701
 20
31.921
 11
75.539
 21
31.9899
  0
LINE
  8
0
 10
75.539
 20
31.9899
 11
75.612
 21
32.0543
  0
LINE
  8
0
 10
75.612
 20
32.0543
 11
75.6889
 21
32.114
  0
LINE
  8
0
 10
75.6889
 20
32.114
 11
75.7695
 21
32.1687
  0
LINE
  8
0
 10
75.7695
 20
32.1687
 11
75.8533
 21
32.2183
  0
LINE
  8
0
 10
75.8533
 20
32.2183
 11
75.94
 21
32.2625
  0
LINE
  8
0
 10
75.94
 20
32.2625
 11
76.0294
 21
32.3012
  0
LINE
  8
0
 10
76.0294
 20
32.3012
 11
76.121
 21
32.3341
  0
LINE
  8
0
 10
76.121
 20
32.3341
 11
76.2145
 21
32.3613
  0
LINE
  8
0
 10
76.2145
 20
32.3613
 11
76.3096
 21
32.3825
  0
LINE
  8
0
 10
76.3096
 20
32.3825
 11
76.4057
 21
32.3978
  0
LINE
  8
0
 10
76.4057
 20
32.3978
 11
76.5027
 21
32.4069
  0
LINE
  8
0
 10
76.5027
 20
32.4069
 11
76.6
 21
32.41
  0
LINE
  8
0
 10
76.6
 20
32.41
 11
76.6973
 21
32.4069
  0
LINE
  8
0
 10
76.6973
 20
32.4069
 11
76.7943
 21
32.3978
  0
LINE
  8
0
 10
76.7943
 20
32.3978
 11
76.8904
 21
32.3825
  0
LINE
  8
0
 10
76.8904
 20
32.3825
 11
76.9855
 21
32.3613
  0
LINE
  8
0
 10
76.9855
 20
32.3613
 11
77.079
 21
32.3341
  0
LINE
  8
0
 10
77.079
 20
32.3341
 11
77.1706
 21
32.3012
  0
LINE
  8
0
 10
77.1706
 20
32.3012
 11
77.26
 21
32.2625
  0
LINE
  8
0
 10
77.26
 20
32.2625
 11
77.3467
 21
32.2183
  0
LINE
  8
0
 10
77.3467
 20
32.2183
 11
77.4305
 21
32.1687
  0
LINE
  8
0
 10
77.4305
 20
32.1687
 11
77.5111
 21
32.114
  0
LINE
  8
0
 10
77.5111
 20
32.114
 11
77.588
 21
32.0543
  0
LINE
  8
0
 10
77.588
 20
32.0543
 11
77.661
 21
31.9899
  0
LINE
  8
0
 10
77.661
 20
31.9899
 11
77.7299
 21
31.921
  0
LINE
  8
0
 10
77.7299
 20
31.921
 11
77.7943
 21
31.848
  0
LINE
  8
0
 10
77.7943
 20
31.848
 11
77.854
 21
31.7711
  0
LINE
  8
0
 10
77.854
 20
31.7711
 11
77.9087
 21
31.6905
  0
LINE
  8
0
 10
77.9087
 20
31.6905
 11
77.9583
 21
31.6067
  0
LINE
  8
0
 10
77.9583
 20
31.6067
 11
78.0025
 21
31.52
  0
LINE
  8
0
 10
78.0025
 20
31.52
 11
78.0412
 21
31.4306
  0
LINE
  8
0
 10
78.0412
 20
31.4306
 11
78.0741
 21
31.339
  0
LINE
  8
0
 10
78.0741
 20
31.339
 11
78.1013
 21
31.2455
  0
LINE
  8
0
 10
78.1013
 20
31.2455
 11
78.1225
 21
31.1504
  0
LINE
  8
0
 10
78.1225
 20
31.1504
 11
78.1378
 21
31.0543
  0
LINE
  8
0
 10
78.1378
 20
31.0543
 11
78.1469
 21
30.9573
  0
LINE
  8
0
 10
78.1469
 20
30.9573
 11
78.15
 21
30.86
  0
LINE
  8
0
 10
78.15
 20
30.86
 11
78.1469
 21
30.7627
  0
LINE
  8
0
 10
78.1469
 20
30.7627
 11
78.1378
 21
30.6657
  0
LINE
  8
0
 10
78.1378
 20
30.6657
 11
78.1225
 21
30.5696
  0
LINE
  8
0
 10
78.1225
 20
30.5696
 11
78.1013
 21
30.4745
  0
LINE
  8
0
 10
78.1013
 20
30.4745
 11
78.0741
 21
30.381
  0
LINE
  8
0
 10
78.0741
 20
30.381
 11
78.0412
 21
30.2894
  0
LINE
  8
0
 10
78.0412
 20
30.2894
 11
78.0025
 21
30.2
  0
LINE
  8
0
 10
78.0025
 20
30.2
 11
77.9583
 21
30.1133
  0
LINE
  8
0
 10
77.9583
 20
30.1133
 11
77.9087
 21
30.0295
  0
LINE
  8
0
 10
77.9087
 20
30.0295
 11
77.854
 21
29.9489
  0
LINE
  8
0
 10
77.854
 20
29.9489
 11
77.7943
 21
29.872
  0
LINE
  8
0
 10
77.7943
 20
29.872
 11
77.7299
 21
29.799
  0
LINE
  8
0
 10
77.7299
 20
29.799
 11
77.661
 21
29.7301
  0
LINE
  8
0
 10
77.661
 20
29.7301
 11
77.588
 21
29.6657
  0
LINE
  8
0
 10
77.588
 20
29.6657
 11
77.5111
 21
29.606
  0
LINE
  8
0
 10
77.5111
 20
29.606
 11
77.4305
 21
29.5513
  0
LINE
  8
0
 10
77.4305
 20
29.5513
 11
77.3467
 21
29.5017
  0
LINE
  8
0
 10
77.3467
 20
29.5017
 11
77.26
 21
29.4575
  0
LINE
  8
0
 10
77.26
 20
29.4575
 11
77.1706
 21
29.4188
  0
LINE
  8
0
 10
77.1706
 20
29.4188
 11
77.079
 21
29.3859
  0
LINE
  8
0
 10
77.079
 20
29.3859
 11
76.9855
 21
29.3587
  0
LINE
  8
0
 10
76.9855
 20
29.3587
 11
76.8904
 21
29.3375
  0
LINE
  8
0
 10
76.8904
 20
29.3375
 11
76.7943
 21
29.3222
  0
LINE
  8
0
 10
76.7943
 20
29.3222
 11
76.6973
 21
29.3131
  0
LINE
  8
0
 10
76.6973
 20
29.3131
 11
76.6
 21
29.31
  0
LINE
  8
0
 10
76.6
 20
29.31
 11
76.5027
 21
29.3131
  0
LINE
  8
0
 10
76.5027
 20
29.3131
 11
76.4057
 21
29.3222
  0
LINE
  8
0
 10
76.4057
 20
29.3222
 11
76.3096
 21
29.3375
  0
LINE
  8
0
 10
76.3096
 20
29.3375
 11
76.2145
 21
29.3587
  0
LINE
  8
0
 10
76.2145
 20
29.3587
 11
76.121
 21
29.3859
  0
LINE
  8
0
 10
76.121
 20
29.3859
 11
76.0294
 21
29.4188
  0
LINE
  8
0
 10
76.0294
 20
29.4188
 11
75.94
 21
29.4575
  0
LINE
  8
0
 10
75.94
 20
29.4575
 11
75.8533
 21
29.5017
  0
LINE
  8
0
 10
75.8533
 20
29.5017
 11
75.7695
 21
29.5513
  0
LINE
  8
0
 10
75.7695
 20
29.5513
 11
75.6889
 21
29.606
  0
LINE
  8
0
 10
75.6889
 20
29.606
 11
75.612
 21
29.6657
  0
LINE
  8
0
 10
75.612
 20
29.6657
 11
75.539
 21
29.7301
  0
LINE
  8
0
 10
75.539
 20
29.7301
 11
75.4701
 21
29.799
  0
LINE
  8
0
 10
75.4701
 20
29.799
 11
75.4057
 21
29.872
  0
LINE
  8
0
 10
75.4057
 20
29.872
 11
75.346
 21
29.9489
  0
LINE
  8
0
 10
75.346
 20
29.9489
 11
75.2913
 21
30.0295
  0
LINE
  8
0
 10
75.2913
 20
30.0295
 11
75.2417
 21
30.1133
  0
LINE
  8
0
 10
75.2417
 20
30.1133
 11
75.1975
 21
30.2
  0
LINE
  8
0
 10
75.1975
 20
30.2
 11
75.1588
 21
30.2894
  0
LINE
  8
0
 10
75.1588
 20
30.2894
 11
75.1259
 21
30.381
  0
LINE
  8
0
 10
75.1259
 20
30.381
 11
75.0987
 21
30.4745
  0
LINE
  8
0
 10
75.0987
 20
30.4745
 11
75.0775
 21
30.5696
  0
LINE
  8
0
 10
75.0775
 20
30.5696
 11
75.0622
 21
30.6657
  0
LINE
  8
0
 10
75.0622
 20
30.6657
 11
75.0531
 21
30.7627
  0
LINE
  8
0
 10
75.0531
 20
30.7627
 11
75.05
 21
30.86
  0
ENDSEC
  0
SECTION
  2
OBJECTS
  0
DICTIONARY
  0
ENDSEC
  0
EOF
